SplineFontDB: 3.0
FontName: gresym
FullName: gresym
FamilyName: gresym
Weight: Medium
Copyright: gresym font, created with FontForge.\nCopyright (C) 2008 Elie Roux <elie.roux@telecom-bretagne.eu>\n\nThis program is free software: you can redistribute it and/or modify\nit under the terms of the GNU General Public License as published by\nthe Free Software Foundation, either version 3 of the License, or\n(at your option) any later version.\n\nThis program is distributed in the hope that it will be useful,\nbut WITHOUT ANY WARRANTY; without even the implied warranty of\nMERCHANTABILITY or FITNESS FOR A PARTICULAR PURPOSE.  See the\nGNU General Public License for more details.\n\nYou should have received a copy of the GNU General Public License\nalong with this program.  If not, see <http://www.gnu.org/licenses/>.\n\nAs a special exception, if you create a document which uses this font, and embed this font or unaltered portions of this font into the document, this font does not by itself cause the resulting document to be covered by the GNU General Public License. This exception does not however invalidate any other reasons why the document might be covered by the GNU General Public License. If you modify this font, you may extend this exception to your version of the font, but you are not obligated to do so. If you do not wish to do so, delete this exception statement from your version.
UComments: "2008-5-14: Created." 
Version: 001.000
ItalicAngle: 0
UnderlinePosition: -100
UnderlineWidth: 50
Ascent: 800
Descent: 200
LayerCount: 2
Layer: 0 0 "Arri+AOgA-re"  1
Layer: 1 0 "Avant"  0
XUID: [1021 1020 122284925 6671357]
OS2Version: 0
OS2_WeightWidthSlopeOnly: 0
OS2_UseTypoMetrics: 1
CreationTime: 1210777466
ModificationTime: 1429785216
OS2TypoAscent: 0
OS2TypoAOffset: 1
OS2TypoDescent: 0
OS2TypoDOffset: 1
OS2TypoLinegap: 0
OS2WinAscent: 0
OS2WinAOffset: 1
OS2WinDescent: 0
OS2WinDOffset: 1
HheadAscent: 0
HheadAOffset: 1
HheadDescent: 0
HheadDOffset: 1
OS2Vendor: 'PfEd'

StartChar: Bar.alt
Encoding: 67 67 0
Width: 337
VWidth: 2048
Flags: W
HStem: 471.097 40.2119<117.481 265.275> 471.097 60.9033<85.2197 232.265>
VStem: 1.82715 310.173
LayerCount: 2
Fore
SplineSet
1.82715 -98.6348 m 9xa0
 275 498.5 l 17
 263.603 491.622 250.71 484.112 232.5 480 c 0
 207.1 474.265 177.375 471.097 152.205 471.097 c 0xa0
 131.296 471.097 113.531 473.282 104 478 c 0
 88.5488 485.646 82.0918 493.782 82.0918 501.355 c 0
 82.0918 518.042 113.446 532 149 532 c 0x60
 175.5 532 214 513 228.5 511.5 c 0
 229.753 511.37 231.03 511.309 232.326 511.309 c 0
 252.271 511.309 276.641 525.927 286.5 532.5 c 1
 296.5 529 305 526 312 524 c 9
 32.3271 -112.135 l 17
 30.3672 -116.206 25.9053 -117.913 20.9033 -117.913 c 0
 11.4219 -117.913 0 -111.78 0 -104 c 0
 0 -102.276 0.560547 -100.472 1.82715 -98.6348 c 9xa0
EndSplineSet
Validated: 1
EndChar

StartChar: StarHeight
Encoding: 69 69 1
Width: 487
VWidth: 249
Flags: W
HStem: 378.475 67.6104<45.6051 74.3256 74.3256 74.5105 74.5105 177.776 292.254 395.73 395.73 424.441>
VStem: 201.296 67.6152<222.939 251.656 251.656 251.808 251.808 355.111 469.588 573.062 573.062 601.774>
LayerCount: 2
Fore
SplineSet
226.702 451.21 m 5
 221.4 476.908 216.478 502.826 210.052 528.355 c 4
 206.516 542.75 201.141 557.85 201.141 572.917 c 4
 201.141 576.012 201.368 579.105 201.884 582.191 c 4
 204.823 599.749 220.26 612.027 236.054 612.027 c 4
 243.868 612.027 251.769 609.021 258.287 602.162 c 4
 266.123 593.913 268.751 583.76 268.751 573.261 c 4
 268.751 565.104 267.164 556.736 265.203 548.891 c 4
 257.111 516.519 250.012 483.896 243.351 451.21 c 5
 257.228 446.216 l 5
 260.365 453.431 265.877 460.091 270.163 466.751 c 4
 278.754 480.071 287.545 493.312 296.048 506.711 c 4
 305.77 522.032 313.416 540.41 327.156 552.679 c 4
 334.573 559.302 344.468 563.229 354.188 563.229 c 4
 362.264 563.229 370.219 560.518 376.53 554.392 c 4
 383.034 548.078 385.894 539.913 385.894 531.602 c 4
 385.894 521.848 381.955 511.892 375.345 504.49 c 4
 363.076 490.75 344.697 483.104 329.377 473.382 c 4
 315.979 464.88 302.737 456.088 289.417 447.498 c 4
 282.757 443.211 276.097 437.699 268.882 434.562 c 5
 273.876 420.685 l 5
 299.574 425.987 325.492 430.909 351.021 437.265 c 4
 365.416 440.86 380.517 446.246 395.585 446.246 c 4
 398.679 446.246 401.772 446.018 404.857 445.502 c 4
 422.415 442.562 434.693 427.127 434.693 411.319 c 4
 434.693 403.498 431.688 395.586 424.828 389.052 c 4
 416.589 381.249 406.449 378.63 395.962 378.63 c 4
 387.793 378.63 379.414 380.219 371.557 382.184 c 4
 339.184 390.276 306.562 397.292 273.876 404.036 c 5
 268.882 390.16 l 5
 275.542 387.702 281.646 382.357 287.752 378.506 c 4
 302.06 369.456 316.056 359.982 330.486 350.99 c 4
 345.733 341.444 364.63 333.845 376.294 319.676 c 4
 382.288 312.395 385.84 302.843 385.84 293.525 c 4
 385.84 284.521 382.523 275.736 374.887 269.429 c 4
 368.704 264.336 361.376 262.047 353.987 262.047 c 4
 344.345 262.047 334.599 265.944 327.156 272.597 c 4
 314.117 284.155 306.926 301.272 297.712 315.79 c 4
 288.254 330.693 278.311 345.205 268.852 360.19 c 4
 264.997 366.22 260.282 372.047 257.228 378.506 c 5
 243.351 373.511 l 5
 248.652 347.812 253.575 321.823 259.931 296.365 c 4
 263.526 281.97 268.911 266.869 268.911 251.801 c 4
 268.911 248.707 268.684 245.615 268.168 242.53 c 4
 265.229 224.97 249.79 212.693 233.981 212.693 c 4
 226.161 212.693 218.251 215.697 211.718 222.551 c 4
 203.915 230.796 201.296 240.937 201.296 251.425 c 4
 201.296 259.594 202.885 267.974 204.85 275.831 c 4
 212.942 308.202 219.958 340.766 226.702 373.511 c 5
 212.826 378.506 l 5
 210.36 372.001 205.057 366.083 201.406 360.19 c 4
 191.938 345.067 181.888 330.221 172.312 315.235 c 4
 163.191 300.788 156.131 283.457 142.896 272.111 c 4
 135.514 265.784 125.843 262.03 116.344 262.03 c 4
 108.293 262.03 100.366 264.726 94.0566 270.835 c 4
 87.5635 277.171 84.7109 285.334 84.7109 293.638 c 4
 84.7109 303.162 88.4629 312.872 94.7773 320.23 c 4
 106.123 333.465 123.454 340.525 137.901 349.646 c 4
 152.887 359.223 167.733 369.272 182.856 378.74 c 4
 188.749 382.391 194.667 387.694 201.171 390.16 c 5
 196.177 404.036 l 5
 170.479 398.734 144.489 393.812 119.031 387.386 c 4
 104.637 383.85 89.5381 378.475 74.4707 378.475 c 4
 71.376 378.475 68.2822 378.702 65.1963 379.218 c 4
 47.6367 382.157 35.3584 397.597 35.3584 413.392 c 4
 35.3584 421.205 38.3623 429.105 45.2168 435.621 c 4
 53.4717 443.458 63.627 446.085 74.1279 446.085 c 4
 82.2852 446.085 90.6523 444.499 98.4971 442.538 c 4
 130.868 434.445 163.431 427.346 196.177 420.685 c 5
 201.171 434.562 l 5
 194.712 437.616 188.886 442.331 182.856 446.186 c 4
 167.871 455.645 153.359 465.588 138.456 475.046 c 4
 123.938 484.26 106.821 491.452 95.2627 504.49 c 4
 88.6104 511.933 84.7129 521.679 84.7129 531.321 c 4
 84.7129 538.71 87.002 546.038 92.0947 552.221 c 4
 98.4014 559.858 107.187 563.175 116.191 563.175 c 4
 125.509 563.175 135.061 559.622 142.342 553.628 c 4
 156.511 541.964 164.11 523.068 173.656 507.821 c 4
 182.648 493.39 192.122 479.394 201.171 465.086 c 4
 205.023 458.98 210.368 452.877 212.826 446.216 c 5
 226.702 451.21 l 5
EndSplineSet
Validated: 1
EndChar

StartChar: Cross.alt
Encoding: 70 70 2
Width: 732
Flags: W
LayerCount: 2
Fore
SplineSet
218 339 m 6
 137 329 86 303 33 240 c 5
 33 532 l 5
 86 469 137 445 218 433 c 6
 338 414 l 5
 319 526 l 6
 306 607 283 666 220 719 c 5
 512 719 l 5
 449 666 424 608 413 526 c 6
 397 414 l 5
 512 433 l 6
 593 446 646 469 699 532 c 5
 699 240 l 5
 646 303 593 328 512 339 c 6
 397 355 l 5
 413 256 l 6
 426 175 449 106 512 53 c 5
 220 53 l 5
 283 106 325 169 325 251 c 5
 337 355 l 5
 218 339 l 6
EndSplineSet
Validated: 1
EndChar

StartChar: ABar.alt
Encoding: 73 73 3
Width: 405
VWidth: 2048
Flags: W
HStem: -121.912 21G<16.1626 23.4043> 587.097 40.2119<153.481 301.275> 587.097 60.9033<121.22 268.265>
LayerCount: 2
Fore
SplineSet
1.82715 -102.634 m 13xc0
 311 614.5 l 17
 299.603 607.622 286.71 600.112 268.5 596 c 0
 243.1 590.265 213.375 587.097 188.205 587.097 c 0xc0
 167.296 587.097 149.531 589.282 140 594 c 0
 124.549 601.646 118.092 609.782 118.092 617.355 c 0
 118.092 634.042 149.446 648 185 648 c 0xa0
 211.5 648 250 629 264.5 627.5 c 0
 265.753 627.37 267.03 627.309 268.326 627.309 c 0
 288.271 627.309 312.641 641.927 322.5 648.5 c 1
 332.5 645 341 642 348 640 c 9
 32.3271 -116.134 l 21
 30.3672 -120.205 25.9053 -121.912 20.9033 -121.912 c 4
 11.4219 -121.912 0 -115.779 0 -107.999 c 4
 0 -106.275 0.560547 -104.471 1.82715 -102.634 c 13xc0
EndSplineSet
Validated: 1
EndChar

StartChar: VBar.alt
Encoding: 74 74 4
Width: 441
VWidth: 2048
Flags: W
HStem: 709.097 40.2119<186.481 334.275> 709.097 60.9033<154.22 301.265>
LayerCount: 2
Fore
SplineSet
1.82715 -101.135 m 13x80
 344 736.5 l 17
 332.603 729.622 319.71 722.112 301.5 718 c 0
 276.1 712.265 246.375 709.097 221.205 709.097 c 0x80
 200.296 709.097 182.531 711.282 173 716 c 0
 157.549 723.646 151.092 731.782 151.092 739.355 c 0
 151.092 756.042 182.446 770 218 770 c 0x40
 244.5 770 283 751 297.5 749.5 c 0
 298.753 749.37 300.03 749.309 301.326 749.309 c 0
 321.271 749.309 345.641 763.927 355.5 770.5 c 1
 365.5 767 374 764 381 762 c 9
 32.3271 -114.635 l 21
 30.3672 -118.706 25.9053 -120.413 20.9033 -120.413 c 4
 11.4219 -120.413 0 -114.28 0 -106.5 c 4
 0 -104.776 0.560547 -102.972 1.82715 -101.135 c 13x80
EndSplineSet
Validated: 1
EndChar

StartChar: Draw1
Encoding: 75 75 5
Width: 1530
VWidth: 0
Flags: W
HStem: 0 91.4034<580.94 1057.2> 0 80<0 301.121 1279.96 1530> 170.093 59.9074<780.305 870.273> 251.285 118.023<296.581 372.879> 300.146 129.639<127.836 200.826> 340 40.1306<887.505 940.373> 400.427 128.384<246.826 293.448 293.448 327.561> 461.198 108.28<393.726 467.988> 479.638 124.911<114.23 187.755> 561.023 128.446<269.92 341.169> 567.822 81.8652<539.879 608.194>
VStem: 100.025 109.975<499.961 581.716> 110.181 109.819<319.018 410.789> 225.688 120.595<415.727 475.422 475.422 511.485> 249.855 119.099<588.239 672.349> 276.954 112.197<270.86 354.909> 371.191 113.236<483.801 552.507> 490 64.2622<187.252 318.276> 664.014 85.9863<760.015 841.178> 767.445 66.9266<426.993 453.25 383.912 498.93> 927.445 332.16<697.172 781.642> 1103.3 66.7045<223.472 230.872 230.872 284.115>
LayerCount: 2
Fore
SplineSet
0 45 m 1x600074
 0 80 l 1
 124 80 l 2
 238.952 80 342.256 108.408 401.299 133.711 c 0
 452.422 155.615 490 203.408 490 246.494 c 0
 490 299.482 448.164 362.373 395.391 388.74 c 0
 367.483 402.674 357.309 408.993 357.309 417.355 c 0
 357.309 421.072 359.319 425.193 362.676 430.566 c 0
 369.578 441.619 374.703 448.055 384.451 448.055 c 0
 399.476 448.055 425.484 432.766 485.908 395.518 c 0
 525.656 371.019 554.262 304.78 554.262 249.246 c 0
 554.262 234.718 552.304 220.923 548.076 208.799 c 0
 544.01 197.127 541.645 185.787 541.645 179.196 c 0
 541.645 176.527 542.033 174.637 542.852 173.818 c 1
 644.552 195.841 767.445 305.36 767.445 420.231 c 0
 767.445 441.518 763.225 462.989 753.867 484.121 c 0
 724.58 544.863 691.357 563.818 607.178 567.822 c 0
 535.692 571.226 514.705 573.073 514.705 585.218 c 0
 514.705 589.486 517.298 595.027 521.201 602.354 c 0
 537.49 632.939 560.41 649.307 587.5 649.688 c 0
 601.053 649.878 608.2 652.56 608.2 659.841 c 0
 608.2 670.491 592.906 690.98 560 727.9 c 0
 526.025 766.018 509.584 793.109 509.584 807.318 c 0
 509.584 814.865 514.222 818.777 523.335 818.777 c 0
 537.351 818.777 561.952 809.522 596.543 790 c 0
 625.771 773.506 651.514 760 653.74 760 c 0
 655.957 760 660.576 774.961 664.014 793.252 c 0
 670.283 826.66 702.256 870 720.635 870 c 0
 733.213 870 750 826.27 750 793.525 c 0
 750 779.688 763.779 736.963 780.615 698.604 c 0
 810.304 630.957 834.372 523.845 834.372 462.464 c 0
 834.372 458.672 834.28 455.054 834.092 451.631 c 0
 833.87 447.609 833.75 444.055 833.75 440.987 c 0
 833.75 431.817 834.82 426.989 837.431 426.989 c 0
 843.089 426.989 855.984 449.675 880.898 500 c 0
 903.398 545.459 915.908 589.062 922.49 645 c 0
 925.565 671.117 927.445 689.28 927.445 705.064 c 0
 927.445 734.953 920.702 756.313 902.559 807.012 c 0
 888.781 845.535 879.462 881.842 879.462 895.551 c 0
 879.462 897.894 879.734 899.577 880.303 900.498 c 0
 884.196 906.796 889.555 909.815 895.923 909.815 c 0
 911.723 909.815 933.736 891.229 955 858.027 c 0
 970.984 833.077 987.966 813.541 993.536 813.541 c 0
 993.717 813.541 993.886 813.562 994.043 813.604 c 0
 999.014 814.941 1018.53 846.318 1037.38 883.34 c 0
 1068.4 944.191 1096.62 976.057 1118.73 976.057 c 0
 1125.02 976.057 1130.81 973.481 1136.03 968.262 c 0
 1142.8 961.483 1146.04 955.046 1146.04 943.806 c 0
 1146.04 934.756 1143.94 922.592 1139.91 904.629 c 0
 1133.9 877.783 1125.22 851.133 1120.64 845.41 c 0
 1116.06 839.688 1109.18 820.381 1105.36 802.5 c 0
 1103.97 795.988 1103.28 790.429 1103.28 785.83 c 0
 1103.28 774.944 1107.13 769.443 1114.57 769.443 c 0
 1121.69 769.443 1132.11 774.49 1145.59 784.688 c 0
 1158.26 794.265 1183.21 799.692 1206.88 799.692 c 0
 1220.64 799.692 1233.96 797.857 1244.18 793.936 c 0
 1254.54 789.959 1259.61 784.719 1259.61 778.566 c 0x602078
 1259.61 767.009 1241.73 752.233 1207.47 736.562 c 0
 1159.05 714.414 1103.83 674.404 1076.29 641.523 c 0
 1070.08 634.102 1053.42 616.104 1039.26 601.523 c 0
 1005.39 566.631 880 393.33 880 381.416 c 0
 880 380.546 880.882 380.131 882.53 380.131 c 0
 890.549 380.131 916.699 389.959 947.5 404.922 c 0
 984.629 422.959 1062.25 450.059 1120 465.137 c 0
 1189.97 483.418 1237.11 501.982 1261.32 520.801 c 0
 1278.63 534.272 1295.31 543.522 1301.66 543.522 c 0
 1302.63 543.522 1303.37 543.305 1303.82 542.852 c 0
 1308.06 538.606 1310.19 533.361 1310.19 527.106 c 0
 1310.19 510.354 1294.95 486.354 1264.37 454.883 c 0
 1240.32 430.143 1221.76 408.793 1221.76 405.966 c 0
 1221.76 405.843 1221.79 405.755 1221.87 405.703 c 0
 1223.59 404.482 1242.27 393.086 1263.37 380.381 c 0
 1304.83 355.43 1340 321.777 1340 307.041 c 0
 1340 303.646 1326.2 301.826 1304.29 301.826 c 0
 1292.04 301.826 1277.26 302.394 1260.94 303.574 c 0
 1242.05 304.94 1227.05 305.808 1215.15 305.808 c 0
 1174.62 305.808 1170 295.736 1170 260.928 c 0
 1170 240.441 1132.84 203.574 1115.11 203.574 c 0
 1113.29 203.574 1111.68 203.962 1110.33 204.795 c 0
 1105.9 207.535 1103.3 213.845 1103.3 220.6 c 0
 1103.3 223.186 1103.68 225.838 1104.48 228.379 c 0
 1105.53 231.665 1106.02 235.048 1106.02 238.499 c 0
 1106.02 283.514 1021.72 340 968.789 340 c 0
 911.787 340 840.879 298.496 807.324 260.85 c 2
 779.844 230 l 1
 812.646 230 l 2
 851.699 230 920 178.643 920 149.277 c 0
 920 137.052 916.257 130.938 908.591 130.938 c 0
 900.776 130.938 888.884 137.291 872.725 150 c 0
 855.639 163.441 831.149 170.093 800.946 170.093 c 0
 758.627 170.093 705.092 157.034 645 131.299 c 0
 606.088 114.632 580.91 104.907 580.91 99.2423 c 0
 580.91 92.0559 621.427 91.4034 725.819 91.4034 c 0xa42074
 748.982 91.4034 775.291 91.4355 805 91.4355 c 0
 1065.66 91.4355 1166.36 101.807 1209.73 132.5 c 0
 1223.32 142.129 1240.3 150 1247.45 150 c 0
 1254.6 150 1279.97 167.998 1303.84 190 c 0
 1333.18 217.043 1350.02 229.124 1361.24 229.124 c 0
 1367.06 229.124 1371.37 225.881 1375.13 219.795 c 0
 1375.71 218.856 1375.99 217.653 1375.99 216.203 c 0
 1375.99 201.849 1348.16 163.354 1305.02 118.721 c 2
 1279.61 92.4414 l 1
 1302.3 86.3574 l 2
 1314.79 83.0176 1371.12 80 1427.5 80 c 1
 1530 80 l 1
 1530 40 l 1
 1530 0 l 1x600074
 765 0 l 1xa00074
 0 0 l 1
 0 45 l 1x600074
310.391 262.754 m 0
 289.062 273.542 276.954 297.772 276.954 319.662 c 0
 276.954 334.033 282.173 347.395 293.428 355.283 c 0
 306.847 364.68 320.773 369.308 333.684 369.308 c 0
 349.862 369.308 364.445 362.041 374.434 347.783 c 0
 384.233 333.786 389.151 321.122 389.151 309.147 c 0
 389.151 295.523 382.785 282.791 370 270 c 0
 357.197 257.197 350.333 251.285 341.353 251.285 c 0x300170
 333.962 251.285 325.138 255.29 310.391 262.754 c 0
140 312.881 m 0
 120.439 322.725 110.181 343.99 110.181 365.275 c 0
 110.181 382.862 117.184 400.464 131.729 411.65 c 0
 144.531 421.504 160.625 429.658 167.5 429.785 c 0
 167.802 429.788 l 0
 188.892 429.788 220 391.281 220 365 c 0
 220 341.762 189.587 300.145 172.7 300.145 c 0
 172.5 300.146 l 0x280870
 168.379 300.234 153.75 305.957 140 312.881 c 0
246.367 415.059 m 0
 232.17 429.259 225.688 446.615 225.688 463.449 c 0
 225.688 494.577 247.849 523.923 284.375 528.252 c 0
 287.539 528.627 290.612 528.811 293.588 528.811 c 0
 325.598 528.811 346.283 507.582 346.283 475.651 c 0
 346.283 470.778 345.801 465.656 344.805 460.322 c 0
 341.182 440.898 333.564 419.375 327.881 412.5 c 0
 321.168 404.379 306.739 400.427 291.446 400.427 c 0x220470
 274.28 400.427 256.025 405.406 246.367 415.059 c 0
396.348 480.732 m 0
 379.5 493.981 371.191 505.191 371.191 516.845 c 0
 371.191 527.009 377.512 537.512 390 550 c 0
 403.034 563.038 418.462 569.478 433.182 569.478 c 0
 449.596 569.478 465.13 561.47 475.479 545.674 c 0
 481.503 536.482 484.427 527.033 484.427 517.861 c 0
 484.427 499.424 472.615 482.103 450.43 470.234 c 0
 439.736 464.51 433.899 461.198 428.283 461.198 c 0x2100f0
 420.842 461.198 413.79 467.013 396.348 480.732 c 0
110.352 499.346 m 0
 103.332 512.461 100.025 526.25 100.025 539.424 c 0
 100.025 568.169 115.769 593.99 143.057 603.506 c 0
 145.086 604.214 147.257 604.549 149.531 604.549 c 0
 173.878 604.549 210 566.173 210 537.012 c 0
 210 503.75 175.428 479.638 145.864 479.638 c 0x209070
 131.169 479.638 117.712 485.595 110.352 499.346 c 0
266.553 578.291 m 0
 255.336 590.681 249.855 611.293 249.855 630.902 c 0
 249.855 652.436 256.465 672.758 269.346 679.648 c 0
 281.607 686.213 293.752 689.469 305.341 689.469 c 0
 321.766 689.469 337.071 682.929 350 670 c 0
 362.64 657.36 368.955 644.364 368.955 631.147 c 0
 368.955 615.832 360.477 600.221 343.535 584.521 c 0
 326.598 568.823 312.12 561.023 298.862 561.023 c 0x204270
 287.453 561.023 276.946 566.8 266.553 578.291 c 0
EndSplineSet
Validated: 1
EndChar

StartChar: Draw2
Encoding: 76 76 6
Width: 2131
VWidth: 0
Flags: W
HStem: 0 121.232<1807.38 2042.49> 0 68.2986<534.264 736.226 1458.05 1762.95 2055.29 2091.63> 0 94.8945<307.452 409.054 915.803 998.812> 109.733 100.96<549.726 604.178> 128.886 141.053<1554.28 1682.94> 128.886 71.1138<1453.43 1605.97> 353.11 117.93<499.628 615.263> 440.561 178.599<1500 1537.94 1900.38 1958.79> 510 109.16<1355.8 1473.89 1988.82 2031.33> 526.954 91.5952<373.199 716.983> 542.066 77.094<1619.57 1830.2>
VStem: 0 284.93<116.919 214.1> 636.924 185.64<242.632 332.166> 1695.2 194.802<281.87 387.625> 2031.33 99.6672<469.105 510.192> 2091.63 39.3728<72.2469 121.717>
LayerCount: 2
Fore
SplineSet
0 132.5 m 1x201d
 0 260 l 1
 67.8613 306.221 l 2
 185.693 386.484 267.539 419.951 420.586 461.084 c 0
 445.274 467.719 473.922 471.039 504.337 471.039 c 0
 644.655 471.039 822.565 400.364 822.565 258.385 c 0
 822.565 240.345 819.692 221.154 813.506 200.811 c 0
 791.165 140.776 708.276 109.733 636.398 109.733 c 0
 574.576 109.733 520.898 132.698 520.898 179.932 c 0
 520.898 189.24 522.983 199.491 527.5 210.693 c 1
 578.076 215.332 598.398 222.988 616.855 244.336 c 0
 631.137 259.865 636.924 275.277 636.924 289.384 c 0
 636.924 318.116 612.915 341.431 587.764 349.277 c 0
 581.386 351.435 574.164 353.11 565.309 353.11 c 0
 551.275 353.11 533.139 348.903 507.764 335.742 c 0
 483.365 323.081 471.414 317.071 465.569 317.071 c 0
 460.36 317.071 460 321.844 460 330.938 c 0
 460 358.066 416.191 400 387.852 400 c 0
 385.335 400.211 382.84 400.315 380.373 400.315 c 0
 343.109 400.315 312.344 376.592 312.344 339.433 c 0
 312.344 333.714 313.073 327.676 314.619 321.357 c 0
 318.037 306.855 332.471 285.371 346.689 273.604 c 0
 359.267 263.204 365.446 253.031 365.446 245.096 c 0
 365.446 236.095 357.495 229.974 341.914 229.668 c 0
 303.393 223.424 284.93 196.727 284.93 168.231 c 0
 284.93 142.712 299.737 115.751 328.203 100.742 c 0
 337.802 96.7655 347.804 94.8945 357.561 94.8945 c 0x321d
 384.918 94.8945 410.347 109.604 419.561 133.848 c 0
 427.671 155.182 438.062 166.631 447.598 166.631 c 0
 453.013 166.631 458.152 162.941 462.441 155.273 c 0
 502.247 94.2219 565.273 68.2986 630.718 68.2986 c 0x401d
 690.622 68.2986 752.552 90.0176 800.557 126.396 c 0
 828.546 150.289 841.143 162.427 853.45 162.427 c 0
 866.073 162.427 878.39 149.656 906.699 123.701 c 0
 927.581 104.544 954.016 98.0013 973.196 98.0013 c 0
 987.034 98.0013 997.097 101.407 998.574 105.938 c 0
 998.734 106.426 998.812 106.91 998.812 107.391 c 0
 998.812 118.586 956.621 128.111 923.193 156.201 c 0
 911.992 165.605 900.42 159.482 857.852 315 c 0
 851.836 337.002 835.684 371.953 821.973 392.686 c 0
 810.104 410.61 801.977 427.585 801.977 433.82 c 0
 801.977 434.794 802.175 435.505 802.588 435.918 c 1
 899.268 388.662 989.355 327.49 1080 269.131 c 0
 1100.95 254.082 1314.56 127.295 1361.66 111.113 c 0
 1417.08 92.0827 1561.16 73.6736 1640.61 73.6736 c 0
 1652.98 73.6736 1663.78 74.1194 1672.43 75.0781 c 0
 1762.17 83.5449 1844.46 114.971 1934.45 120.82 c 0
 1939.46 121.1 1944.34 121.232 1949.08 121.232 c 0x801d
 2005.01 121.232 2041.66 102.794 2054.05 91.1621 c 0
 2067.3 78.7217 2077.81 72.2444 2084.3 72.2444 c 0
 2089.02 72.2444 2091.63 75.6628 2091.63 82.6967 c 0
 2091.63 85.8636 2091.1 89.7634 2090 94.4141 c 0
 2088.65 100.098 2082.51 121.611 2025.53 151.152 c 2
 1985.76 167.295 l 1
 1985.76 167.295 1998.34 171.426 2020.38 185.801 c 0
 2042.42 200.176 2098.33 229.111 2131 260 c 1
 2131 119.512 l 1
 2131 0 l 1
 1065 0 l 1
 0 0 l 1
 0 132.5 l 1x201d
1520 131.416 m 0
 1435.92 139.707 1370.78 160.605 1283.44 207.305 c 0
 1178.94 263.164 980.625 393.311 980.293 406.25 c 0
 980.291 406.38 l 0
 980.291 412.449 991.838 413.012 1007.24 419.023 c 0
 1069.96 443.535 1080 466.982 1080 491.035 c 0
 1080 496.454 1078.14 498.538 1075.25 498.538 c 0
 1067.8 498.538 1053.52 484.64 1046.81 478.389 c 0
 1024.1 457.228 999.073 449.97 976.554 449.97 c 0
 967.594 449.97 959.032 451.119 951.172 452.998 c 0
 806.148 481.819 680.221 526.954 530.753 526.954 c 0
 524.335 526.954 517.875 526.87 511.367 526.699 c 0
 404.15 519.092 319.307 494.502 236.035 458.857 c 0
 152.764 423.223 75.0293 374.951 0 320 c 1
 0 618.549 l 1x085e
 1062.5 619.16 l 1
 2131 619.16 l 1
 2131 330.488 l 1
 2131 320 l 1x003d
 2082.76 285.469 l 2
 2028.56 246.278 1886.81 171.8 1866.42 171.8 c 0
 1865.4 171.8 1864.68 171.986 1864.3 172.373 c 0
 1863.99 172.677 1863.85 173.173 1863.85 173.845 c 0
 1863.85 180.069 1876.46 201.381 1894.02 224.395 c 0
 1918.84 256.904 1931.39 285.664 1936.03 320.605 c 0
 1945.05 368.291 1962.63 416.016 1995 452.939 c 0
 2019.94 479.382 2031.33 497.717 2031.33 505.699 c 0
 2031.33 508.657 2029.77 510.193 2026.75 510.193 c 0
 2018.69 510.193 2000.28 499.263 1973.6 475.234 c 0
 1952.37 456.113 1930.5 440.391 1925 440.303 c 0
 1924.95 440.302 l 0
 1919.42 440.302 1904.54 455.483 1891.86 474.131 c 0
 1863.77 515.376 1792.61 542.066 1711.24 542.066 c 0x003e
 1710.11 542.066 1708.98 542.061 1707.85 542.051 c 0
 1659.38 541.621 1642.44 536.055 1596.29 505.41 c 0
 1566.35 485.547 1536.39 462.695 1529.71 454.648 c 0
 1521.92 445.263 1514.44 440.561 1508.93 440.561 c 0x011e
 1503.51 440.561 1500 445.127 1500 454.277 c 0
 1500 477.012 1450.2 510 1415.88 510 c 0
 1369.25 510 1340 485.322 1340 445.986 c 0
 1340 400.098 1370.43 375 1426.05 375 c 0
 1450.22 375 1470 374.609 1470 374.131 c 0
 1470 373.652 1452.55 354.912 1431.22 332.49 c 0
 1405.77 305.737 1396.47 291.102 1396.47 275.039 c 0
 1396.47 272.005 1396.8 268.92 1397.42 265.693 c 0
 1403.04 236.318 1447.77 200 1478.33 200 c 0x049e
 1506.1 200 1527.28 223.574 1541.19 270.029 c 2
 1552.91 309.16 l 1
 1577.8 289.58 l 2
 1594.53 276.422 1615.16 269.94 1634.29 269.94 c 0
 1655.4 269.94 1674.67 277.832 1684.84 293.359 c 0
 1691.92 304.15 1695.2 317.829 1695.2 331.701 c 0
 1695.2 356.698 1684.54 382.324 1666.18 392.812 c 0
 1644.63 405.117 1638.47 406.807 1607.5 408.848 c 0
 1596.5 409.574 1590.99 413.131 1590.99 419.605 c 0
 1590.99 428.976 1602.54 444.459 1625.71 466.318 c 0
 1657.13 495.947 1667.89 500 1715.12 500 c 0
 1768.66 498.916 1817.64 477.607 1854.22 438.203 c 0
 1884.64 402.666 1890 389.102 1890 347.705 c 0
 1890 320.918 1883.37 286.172 1875.25 270.498 c 0
 1857.33 235.84 1764.49 155.85 1730 145.332 c 0
 1696.47 135.121 1634.34 128.886 1577.6 128.886 c 0x081e
 1557.17 128.886 1537.44 129.694 1520 131.416 c 0
EndSplineSet
Validated: 1
EndChar

StartChar: RWithBarGoth
Encoding: 77 77 7
Width: 709
VWidth: 0
Flags: W
HStem: -10.8201 101.483<568.673 635.657> 47.1177 76.2809<131.072 204.18> 511.324 153.357<387.614 443.575>
VStem: 0.024971 26.3203<512.551 528.783> 204.765 91.3393<358.961 384.934 373.838 492.792> 353.306 42.5205<68.5459 70.3691 70.3691 70.3691 73.2515 121.088 98.1727 153.656> 587.281 67.7309<371.799 471.501>
LayerCount: 2
Fore
SplineSet
526.338 10.0664 m 0xbe
 484.385 48.4961 460.619 105.482 448.125 160.934 c 0
 444.938 175.08 439.244 194.26 437.215 199.01 c 1
 429.156 192.643 424.07 188.879 412.512 171.066 c 0
 401.999 154.865 395.826 141.775 395.826 123.094 c 0
 395.826 122.432 395.834 121.764 395.85 121.088 c 0
 396.438 95.5059 401.129 83.6934 415.113 70.959 c 0
 425.251 61.2312 431.378 44.0019 431.378 28.1394 c 0
 431.378 11.5071 424.642 -3.6224 408.729 -7.02539 c 0
 405.866 -7.63763 403.062 -7.93879 400.329 -7.93879 c 0
 373.392 -7.93879 353.455 21.3348 353.338 70.3691 c 0
 353.316 71.3314 353.306 72.2922 353.306 73.2515 c 0
 353.306 113.301 371.826 150.706 392.604 184.922 c 0
 402.576 201.348 415.752 215.855 429.373 233.025 c 1
 422.473 259.494 405.721 286.588 372.072 300.012 c 0
 345.254 310.709 315.639 316.396 286.758 319.26 c 2
 276.445 320.281 l 1
 238.193 259.785 207.664 191.805 153.639 143.934 c 2
 131.072 123.938 l 1
 142.034 123.865 153.018 123.399 163.977 123.399 c 0
 168.13 123.399 172.279 123.466 176.422 123.646 c 0
 196.424 124.504 222.922 126.178 244.205 127.701 c 0
 259.055 128.764 277.68 132.506 283.072 134.17 c 0
 313.541 143.57 326.127 162.652 333.119 169.166 c 0
 336.462 172.775 338.731 174.359 340.132 174.359 c 0
 341.399 174.359 341.957 173.065 341.957 170.803 c 0
 341.957 157.535 322.767 110.965 315.098 97.127 c 0
 300.627 71.0137 282.709 42.873 264.984 19.2617 c 0
 258.757 10.966 246.115 -3.84168 235.414 -3.84168 c 0
 234.032 -3.84168 232.682 -3.59466 231.383 -3.05469 c 0
 215.924 3.37109 220.238 19.5957 183.199 40.2695 c 0
 175.977 44.3013 162.169 47.1177 150.427 47.1177 c 0x7e
 145.594 47.1177 141.11 46.6404 137.58 45.5742 c 0
 99.5996 34.1094 90.4766 29.5449 37.6289 -2.5918 c 1
 44.9121 10.5352 64.3438 33.3906 73.6211 46.1641 c 0
 98.6758 80.6602 110.334 98.1094 129.969 133.934 c 0
 138.096 148.764 145.439 164.133 151.521 179.934 c 0
 177.232 246.709 203.936 312.715 204.744 384.934 c 0
 204.758 386.189 204.765 387.45 204.765 388.715 c 0
 204.765 430.542 196.969 477.579 173.49 512.934 c 0
 156.21 538.95 127.326 567.378 93.8995 567.378 c 0
 92.6734 567.378 91.4411 567.34 90.2031 567.262 c 0
 66.1543 565.91 32.8066 554.125 25.375 528.863 c 1
 26.0348 527.144 26.3453 525.346 26.3453 523.597 c 0
 26.3453 517.798 22.929 512.547 17.5125 512.547 c 0
 15.7447 512.547 13.7638 513.107 11.6191 514.389 c 0
 2.41423 519.889 0.024971 525.773 0.024971 531.193 c 0
 0.024971 531.645 0.041592 532.094 0.0722656 532.539 c 0
 2.79297 571.938 32.4609 600.941 61.625 623.287 c 0
 91.2539 645.99 133.109 663.615 170.172 669.893 c 1
 178.861 666.703 182.955 665.176 186.387 662.771 c 0
 234.875 628.783 268.623 578.699 290.072 524.395 c 0
 290.555 523.172 291.38 522.597 292.504 522.597 c 0
 309.819 522.597 398.055 659.012 398.904 660.254 c 0
 400.955 664.289 402.674 664.898 411.369 664.682 c 0
 425.873 664.318 436.846 654.16 445.215 641.619 c 0
 459.83 621.191 486.69 617.038 511.371 617.038 c 0
 517.117 617.038 522.745 617.263 528.072 617.561 c 0
 552.346 618.916 588.406 631.645 614.811 665.012 c 0
 615.655 666.079 616.586 666.584 617.521 666.584 c 0
 620.694 666.584 623.911 660.768 623.911 651.347 c 0
 623.911 646.079 622.905 639.685 620.324 632.549 c 0
 614.707 617.02 607.248 609.863 588.391 591.256 c 0
 556.531 559.822 530.355 523.373 502.148 488.635 c 0
 467.965 441.578 428.508 410.619 389.738 344.252 c 1
 397.459 343.762 401.285 342.562 422.633 341.953 c 0
 467.367 340.68 487.992 318.014 507.906 293.211 c 1
 512.67 293.211 558.758 334.225 566.574 347.145 c 0
 576.753 361.025 587.281 378.886 587.281 396.147 c 0
 587.281 403.651 585.292 411.041 580.42 417.941 c 1
 569.186 429.65 559.371 441.348 553.041 456.703 c 1
 551.725 463.143 551.047 469.379 551.047 475.303 c 0
 551.047 495.683 559.08 512.378 576.844 521.059 c 1
 583.47 522.171 589.6 522.7 595.26 522.7 c 0
 639.453 522.7 655.012 490.474 655.012 452.528 c 0
 655.012 435.809 651.991 417.979 647.068 401.307 c 0
 643.307 388.631 629.367 363.445 619.197 350.953 c 0
 593.498 318.928 563.588 293.938 528.992 272.439 c 0
 527.389 271.543 522.162 266.953 519.094 265.119 c 1
 520.178 261.252 522.75 256.158 523.311 254.463 c 0
 534.73 220.002 544.748 187.527 561.164 155.348 c 0
 574.67 128.874 601.227 90.6633 633.695 90.6633 c 0
 637.987 90.6633 642.382 91.3309 646.863 92.7812 c 0
 668.27 99.707 672.914 108.014 691.143 127.934 c 0
 698.053 135.486 702.614 138.541 705.396 138.541 c 0
 707.947 138.541 709.002 135.972 709.002 131.945 c 0
 709.002 121.707 702.183 102.046 695.781 91.2168 c 0
 670.232 48.0059 642.693 -1.60352 591.41 -9.75781 c 0
 586.954 -10.4665 582.567 -10.8201 578.26 -10.8201 c 0
 559.086 -10.8201 541.491 -3.81359 526.338 10.0664 c 0xbe
363.857 347.627 m 1
 370.539 355.27 371.711 357.887 382.92 374.963 c 0
 398.939 399.369 431.002 441.291 440.756 450.584 c 0
 456.473 468.971 472.02 487.59 487.848 505.934 c 0
 500.104 520.128 506.231 528.923 506.231 532.324 c 0
 506.231 533.397 505.621 533.934 504.402 533.934 c 1
 495.322 528.736 494.275 526.686 484.133 522.219 c 0
 468.571 516.603 445.74 511.324 424.411 511.324 c 0
 411.845 511.324 399.801 513.157 390.072 517.832 c 0
 376.598 524.307 369.244 535.469 353.072 543.934 c 1
 352.393 545.033 350.412 545.934 348.67 545.934 c 1
 336.451 532.525 326.441 523.836 310.516 508.4 c 0
 304.803 502.861 299.732 496.002 295.391 490.26 c 1
 295.881 485.039 296.105 478.437 296.105 470.953 c 0
 296.105 435.33 291.029 379.721 285.402 357.914 c 1
 314.705 353.422 342.309 350.395 363.857 347.627 c 1
EndSplineSet
Validated: 1
EndChar

StartChar: VWithBarGoth
Encoding: 78 78 8
Width: 721
VWidth: 0
Flags: W
HStem: 1.42188 133.596<191.481 255.292>
VStem: 149.628 128.004<22.5517 116.315> 149.647 41.7402<94.6632 209.881> 352 112.947<587.854 663.638> 419.806 45.1412<495.67 566.446 528.305 566.081> 635.005 86.127<338.051 386.066 363.704 470.967>
LayerCount: 2
Fore
SplineSet
423 0 m 1x94
 420.492 55.584 406.172 102.314 392.074 146.918 c 0
 372.285 198.391 355.129 258.135 325.797 305.727 c 0
 318.597 317.409 315.901 324.62 309.583 324.62 c 0
 304.471 324.62 296.988 319.899 282.83 309.006 c 0
 250.604 284.213 229.186 258.262 211.312 222.586 c 0
 198.904 201.189 193.172 177.443 191.387 152.771 c 0xb4
 191.387 142.158 198.871 135.018 206.111 135.018 c 0
 224.057 133.312 244.039 129.092 255.852 120.064 c 0
 271.267 107.16 277.631 90.0639 277.631 71.936 c 0
 277.631 66.6293 277.086 61.2343 276.062 55.8301 c 0
 271.656 25.3789 248.625 2.74609 217.586 1.42188 c 0
 188.057 3.10938 167.955 16.2578 154.947 51.4824 c 0
 150.558 64.6727 149.628 69.8253 149.628 86.3313 c 0xc4
 149.628 88.09 149.638 89.9776 149.656 92.0176 c 0
 149.65 92.9022 149.647 93.784 149.647 94.6632 c 0
 149.647 252.66 253.858 323.954 282.117 354.014 c 0
 290.518 361.97 293.91 366.171 293.91 370.677 c 0
 293.91 374.696 291.211 378.957 286.961 386.342 c 0
 260.492 434.838 229.783 480.607 196.561 524.809 c 0
 181.023 544.846 172.197 555.156 155.262 572.74 c 0
 148.021 580.131 135.816 595.867 123.287 604.242 c 1
 99.6797 602.01 67.9648 584.67 45.6504 568.566 c 0
 31.5918 558.418 25.5234 556.846 17.3789 547.992 c 1
 10.8398 569.73 8.60938 577.59 -0.0332031 595.395 c 1
 53.5176 639.463 112.783 671.936 179.172 691.971 c 1
 206.244 670.465 243.615 636.27 268.881 605.787 c 0
 310.865 555.133 334.764 517.873 377.932 441.211 c 1
 383.486 446.869 392.568 456.215 400.85 469.018 c 0
 413.375 488.381 419.806 500.807 419.806 521.436 c 0xac
 419.806 523.627 419.733 525.91 419.588 528.305 c 0
 418.846 540.693 410.951 550.639 404.953 558.412 c 0
 387.428 583.906 354.914 587.832 352 629.201 c 0
 351.997 629.61 l 0
 351.997 650.432 374.53 677.783 390.994 680.418 c 0
 395.022 681.062 399.107 681.386 403.135 681.386 c 0
 415.68 681.386 427.668 678.247 435.619 671.879 c 0
 446.125 663.467 456.662 644.062 460.984 629.814 c 0
 463.322 622.106 464.947 611.456 464.947 599.426 c 0
 464.947 589.216 463.777 578.013 460.879 566.77 c 0
 454.566 542.279 445.625 485.264 422.477 449.348 c 0
 416.527 439.867 410.523 432.559 408.055 428.246 c 1
 411.881 428.043 420.172 431.457 421.4 432.301 c 0
 470.586 466.184 496.357 513.326 513.018 552.018 c 0
 529.51 590.32 540.744 638.297 553.377 669.193 c 0
 555.602 674.514 556.514 677.396 558.092 680.531 c 1
 676.599 608.011 721.132 537.435 721.132 450.216 c 0
 721.132 441.649 720.702 432.923 719.871 424.018 c 0
 703.82 252.096 548.357 110.354 423 0 c 1x94
495.16 128.895 m 1
 506.15 139.33 552.988 172.488 608.859 270.732 c 0
 623.479 296.439 634.029 326.846 634.979 386.066 c 0
 634.996 387.165 635.005 388.262 635.005 389.357 c 0
 635.005 447.289 610.191 500.115 542.086 541.018 c 1
 541.333 541.019 l 0
 537.092 541.019 536.155 540.562 528.943 523.49 c 0
 521.324 505.453 520.596 503.084 504.703 475.012 c 0
 486.348 442.59 442.178 410.264 427.182 398.932 c 0
 412.186 387.6 416.27 390.748 410.006 385.744 c 1
 442.119 307.99 467.873 250.184 495.16 128.895 c 1
EndSplineSet
Validated: 1
EndChar

StartChar: Sep1
Encoding: 79 79 9
Width: 6908
VWidth: 0
Flags: W
HStem: -200.657 85.1261<3419.41 3486.5> -172.25 80.1592<3201.36 3281.19 3625.94 3705.67> -166.238 48.8594<2717.3 2988.46 3924.14 4189.96> -143.531 86.8779<2287.93 2438.63 4468.62 4619.33> -119.951 73.4707<1800.47 2009.54 4897.71 5106.75> -83.1572 71.3213<225.67 651.737 6255.38 6681.66> -58.0205 113.271<3399.31 3510.68> -15.0688 89.9184<993.635 1270.74 2780.65 2876.89> -0.974609 83.0859<1049.97 1507.83 5399.46 5857.2> 7.99282 118.302<1802.72 1886.93 5020.37 5104.44> 26.0654 48.7842<2721.04 2831.62 4075.71 4186.25> 30.251 15.4105<2508.45 2547.11 4360.2 4398.89> 107.283 75.625<3195.46 3272.75 3634.43 3711.72> 118.536 68.5899<3405.02 3496.49> 147.714 61.9922<2471.59 2878.93 4028.25 4435.74>
VStem: 3191.71 85.1348<111.866 177.998> 3196.43 89.6299<-166.862 -97.4135> 3380.48 142.29<-38.662 42.567> 3606.3 147.571<-20.8136 34.9296> 3621.2 89.6299<-166.718 -97.2443> 3630.33 85.1348<112.013 178.008>
LayerCount: 2
Fore
SplineSet
2701.79 209.626 m 0x084060
 2727.35 209.548 2750.57 208.469 2768.2 206.189 c 0
 2847.94 195.867 2925.65 189.592 3000.7 161.033 c 0
 3073.18 133.455 3166.09 84.0156 3191.79 66.0332 c 0
 3202.76 58.3613 3225.35 48.2734 3239.45 45.7207 c 1
 3285.56 65.2461 3364.84 122.897 3400.86 163.221 c 0
 3413.59 177.474 3424.46 187.126 3449.36 187.126 c 0x080460
 3449.45 187.126 l 0
 3474.41 187.102 3481.78 178.127 3500.73 161.418 c 0
 3542.6 124.504 3621.62 65.2461 3667.73 45.7207 c 1
 3681.83 48.2734 3704.42 58.5176 3715.39 66.1895 c 0
 3741.09 84.1719 3834 133.61 3906.48 161.189 c 0
 3981.53 189.748 4059.24 196.022 4138.98 206.346 c 0
 4157.42 208.73 4182.04 209.706 4208.99 209.706 c 0
 4285.11 209.706 4379.82 201.926 4406.32 196.189 c 0
 4515.9 172.468 4569.03 162.248 4670.23 108.533 c 0
 4777.36 51.6738 4873.28 -46.4805 4997.86 -46.4805 c 0x080260
 5004.26 -46.4805 5010.71 -46.2217 5017.26 -45.6855 c 0
 5046.56 -43.2891 5088.51 -36.6484 5115.71 -19.749 c 1
 5113.88 -6.92493 5097.89 8.13237 5078.63 8.13237 c 0
 5073.74 8.13237 5068.64 7.16231 5063.51 4.93945 c 0
 5052.23 0.0486546 5045.36 -2.1721 5038.85 -2.1721 c 0
 5034.46 -2.1721 5030.23 -1.16188 5024.91 0.720703 c 0
 4995.56 11.1387 4985.21 21.4121 4985.21 45.5293 c 0
 4985.21 50.5293 4985.66 56.124 4986.46 62.4395 c 0
 4991.81 103.937 5013.71 126.295 5045.66 126.295 c 0
 5059.46 126.295 5075.11 122.127 5092.11 113.533 c 0
 5135.41 84.7188 5165.96 41.4922 5183.36 10.7207 c 1
 5316.26 47.6738 5470.06 82.1113 5633.86 82.1113 c 0
 5688.76 82.1113 5744.76 78.2461 5801.46 69.3145 c 0
 6033.71 41.7266 6170.81 -11.8359 6483.66 -11.8359 c 0
 6498.46 -11.8359 6513.66 -11.7148 6529.31 -11.4668 c 0
 6636.66 -9.76367 6742.91 12.3906 6850.51 12.3906 c 0
 6854.76 12.3906 6859.06 12.3555 6863.36 12.2832 c 0
 6893.66 11.7666 6907.21 7.06445 6907.21 0.140625 c 0
 6907.21 -15.666 6836.51 -43.0527 6732.56 -58.6543 c 0
 6632.56 -73.6689 6540.66 -83.1572 6445.81 -83.1572 c 0
 6394.76 -83.1572 6342.81 -80.4043 6288.36 -74.2793 c 0
 6138.36 -57.0293 5977.21 -35.2275 5828.96 -16.4668 c 0
 5754.91 -6.92578 5678.76 -0.865234 5602.61 -0.865234 c 0
 5471.86 -0.865234 5341.16 -18.7422 5221.46 -67.5605 c 0
 5159.11 -92.9961 5083.56 -119.807 5014.41 -119.807 c 0
 5000.21 -119.807 4986.26 -118.672 4972.71 -116.154 c 0
 4878.39 -98.5859 4801.29 -74.9004 4721.17 -4.2793 c 1
 4705.62 -65.4805 4685.74 -120.765 4590.39 -137.717 c 0
 4571.17 -141.133 4549.57 -143.375 4528.83 -143.375 c 0
 4481.76 -143.375 4439.17 -131.826 4439.17 -96.2471 c 0
 4439.17 -88.4551 4441.21 -79.5088 4445.7 -69.2793 c 0
 4455.42 -47.1133 4469.69 -40.3535 4486.68 -40.3535 c 0
 4510.73 -40.3535 4540.24 -53.8955 4570.07 -56.4668 c 0
 4571.52 -56.5918 4572.96 -56.6523 4574.41 -56.6523 c 0
 4603.1 -56.6523 4631.94 -32.6045 4631.94 -2.10547 c 0
 4631.94 2.60938 4631.25 7.47949 4629.76 12.4395 c 0
 4584.08 125.92 4354.76 147.714 4221.81 147.714 c 0
 4198.11 147.714 4177.47 147.021 4161.48 146.033 c 0
 4066.84 141.877 3959.81 111.608 3853.98 74.001 c 0
 3783.01 41.5303 3766.87 32.4482 3758.98 20.4082 c 0
 3755.31 14.8039 3753.87 9.42536 3753.87 4.32772 c 0
 3753.87 -5.28986 3759 -13.9075 3763.98 -21.1543 c 1
 3836.12 -82.9219 3971.21 -117.223 4078.99 -117.223 c 0
 4108.08 -117.223 4135.18 -114.725 4158.51 -109.592 c 0
 4193.27 -101.949 4217.54 -76.5898 4217.54 -48.1504 c 0
 4217.54 -26.3721 4203.31 -2.78711 4168.67 16.0332 c 0
 4156.51 22.6348 4144.44 26.2217 4131.92 26.2217 c 0
 4116.63 26.2217 4100.66 20.8789 4083.04 9.1582 c 0
 4060.72 -5.69695 4042.89 -14.9121 4030.33 -14.9121 c 0
 4024.59 -14.9121 4019.95 -12.9916 4016.48 -8.81055 c 0
 4014.63 -6.57715 4013.8 -3.65234 4013.8 -0.277344 c 0
 4013.8 15.9336 4032.99 42.5332 4050.23 52.9082 c 0
 4076.06 68.4512 4101.57 75.0059 4126.65 75.0059 c 0
 4180.61 75.0059 4232.59 44.6719 4281.48 8.2207 c 0
 4284.3 6.11914 4287.14 5.20508 4290.03 5.20508 c 0
 4308.46 5.20508 4328.45 42.4941 4352.73 45.4082 c 0
 4354.18 45.5823 4355.74 45.6657 4357.39 45.6657 c 0
 4372.34 45.6657 4394.03 38.7615 4399.14 30.4082 c 1
 4341.31 19.7725 4310.85 -70.8281 4263.2 -112.873 c 0
 4231.05 -141.242 4170.68 -158.455 4125.23 -163.029 c 0
 4103.64 -165.204 4082.51 -166.23 4061.86 -166.23 c 0
 3932.18 -166.23 3821.39 -125.766 3735.07 -74.9043 c 0
 3706.43 -60.2695 3687.26 -53.0645 3670.42 -53.0645 c 0
 3654.74 -53.0645 3641.08 -59.3105 3623.67 -71.624 c 0
 3564.78 -111.355 3531.88 -126.219 3483.51 -184.279 c 0
 3475.93 -193.381 3466.69 -200.627 3453.95 -200.657 c 0
 3453.87 -200.657 l 0x848260
 3440.89 -200.657 3431.75 -194.307 3423.82 -184.436 c 0
 3376.32 -125.256 3342.4 -111.512 3283.51 -71.7793 c 0
 3266.1 -59.4668 3252.44 -53.2207 3236.76 -53.2207 c 0
 3219.92 -53.2207 3200.75 -60.4258 3172.11 -75.0605 c 0
 3085.82 -125.901 2975.09 -166.238 2845.48 -166.238 c 0
 2824.78 -166.238 2803.59 -165.209 2781.95 -163.029 c 0
 2736.5 -158.455 2676.13 -141.398 2643.98 -113.029 c 0
 2596.33 -70.9844 2566.03 19.6172 2508.2 30.251 c 1
 2513.31 38.6201 2534.95 45.6615 2549.88 45.6615 c 0x201060
 2551.49 45.6615 2553.03 45.5794 2554.45 45.4082 c 0
 2578.74 42.4932 2598.74 5.05664 2617.18 5.05664 c 0
 2620.05 5.05664 2622.89 5.96875 2625.7 8.06445 c 0
 2674.59 44.5166 2726.65 74.8496 2780.65 74.8496 c 0x002060
 2805.76 74.8496 2831.28 68.2949 2857.11 52.751 c 0
 2874.33 42.3867 2893.4 15.8291 2893.4 -0.386719 c 0
 2893.4 -3.78125 2892.56 -6.72266 2890.7 -8.9668 c 0
 2887.23 -13.1482 2882.61 -15.0688 2876.89 -15.0688 c 0x010060
 2864.37 -15.0688 2846.62 -5.85343 2824.29 9.00098 c 0
 2806.68 20.7227 2790.71 26.0654 2775.42 26.0654 c 0
 2762.9 26.0654 2750.82 22.4795 2738.67 15.876 c 0
 2704.03 -2.94336 2689.8 -26.5273 2689.8 -48.3066 c 0
 2689.8 -76.7461 2714.06 -102.105 2748.82 -109.748 c 0
 2772.16 -114.881 2799.25 -117.379 2828.33 -117.379 c 0x202060
 2936.07 -117.379 3071.06 -83.0781 3143.2 -21.3105 c 1
 3148.18 -14.063 3153.32 -5.44436 3153.32 4.17413 c 0
 3153.32 9.27076 3151.87 14.6481 3148.2 20.251 c 0
 3140.31 32.293 3124.17 41.375 3053.2 73.8457 c 0
 2947.37 111.453 2840.34 141.877 2745.7 146.033 c 0
 2729.78 147.018 2709.25 147.705 2685.69 147.705 c 0
 2552.78 147.705 2323.13 125.853 2277.42 12.2832 c 0
 2275.93 7.32324 2275.24 2.45605 2275.24 -2.25586 c 0
 2275.24 -32.7188 2304.07 -56.6533 2332.76 -56.6533 c 0
 2334.21 -56.6533 2335.66 -56.5918 2337.11 -56.4668 c 0
 2366.89 -53.8994 2396.41 -40.4512 2420.48 -40.4512 c 0
 2437.56 -40.4512 2451.89 -47.2188 2461.64 -69.4355 c 0
 2466.12 -79.666 2468.17 -88.6113 2468.17 -96.4033 c 0
 2468.17 -131.982 2425.57 -143.531 2378.51 -143.531 c 0x100060
 2357.77 -143.531 2336.16 -141.289 2316.95 -137.873 c 0
 2221.6 -120.92 2201.72 -65.4805 2186.17 -4.2793 c 1
 2106.05 -74.9004 2028.8 -98.7422 1934.45 -116.311 c 0
 1920.98 -118.82 1907.07 -119.951 1892.89 -119.951 c 0
 1823.71 -119.951 1748.1 -93.0137 1685.7 -67.5605 c 0
 1566.15 -18.8047 1435.66 -0.974609 1305.06 -0.974609 c 0
 1228.76 -0.974609 1152.41 -7.06152 1078.2 -16.624 c 0
 929.979 -35.3828 768.968 -57.1855 618.983 -74.4355 c 0
 564.513 -80.5605 512.598 -83.3135 461.523 -83.3135 c 0
 366.699 -83.3135 274.773 -73.8252 174.763 -58.8105 c 0
 70.8066 -43.2041 0 -15.8047 0 0 c 0
 0 6.91602 13.5566 11.6104 43.8252 12.126 c 0
 48.1143 12.1992 52.4004 12.2344 56.6836 12.2344 c 0
 164.29 12.2344 270.531 -9.91895 377.888 -11.624 c 0
 393.464 -11.8711 408.619 -11.9912 423.383 -11.9912 c 0
 736.343 -11.9912 873.428 41.7236 1105.7 69.3145 c 0
 1162.42 78.2461 1218.43 82.1113 1273.31 82.1113 c 0x088060
 1437.12 82.1113 1590.9 47.6738 1723.82 10.7207 c 1
 1741.22 41.4922 1771.75 84.7188 1815.07 113.533 c 0
 1832.07 122.127 1847.74 126.295 1861.55 126.295 c 0
 1893.53 126.295 1915.53 103.937 1920.86 62.4395 c 0
 1921.67 56.124 1922.11 50.5244 1922.11 45.5176 c 0
 1922.11 21.3633 1911.78 10.9824 1882.42 0.564453 c 0
 1877.11 -1.31813 1872.86 -2.32835 1868.45 -2.32835 c 0
 1861.89 -2.32835 1854.97 -0.107596 1843.67 4.7832 c 0
 1838.51 7.01782 1833.38 7.99282 1828.46 7.99282 c 0
 1809.23 7.99282 1793.29 -6.94215 1791.48 -19.749 c 1
 1818.66 -36.6484 1860.77 -43.2891 1890.07 -45.6855 c 0
 1896.62 -46.2217 1903.09 -46.4805 1909.48 -46.4805 c 0
 2034.04 -46.4805 2129.82 51.6738 2236.95 108.533 c 0
 2338.15 162.248 2391.44 172.312 2501.01 196.033 c 0
 2527.54 201.773 2622.35 209.631 2698.48 209.631 c 0
 2701.79 209.626 l 0x084060
3233.04 182.908 m 0x000940
 3262.11 182.873 3276.85 163.449 3276.85 144.299 c 0
 3276.85 125.662 3262.89 107.283 3234.58 107.283 c 0
 3234.45 107.283 l 0
 3205.85 107.342 3191.71 126.43 3191.71 145.412 c 0
 3191.71 164.212 3205.58 182.908 3232.97 182.908 c 0
 3233.04 182.908 l 0x000940
3674.14 182.908 m 0
 3674.21 182.908 l 0
 3701.61 182.908 3715.47 164.251 3715.47 145.49 c 0
 3715.47 126.547 3701.34 107.498 3672.73 107.439 c 0
 3672.6 107.438 l 0
 3644.29 107.438 3630.33 125.779 3630.33 144.379 c 0x000848
 3630.33 163.49 3645.07 182.873 3674.14 182.908 c 0
3601.32 -28.0293 m 0
 3604.73 -23.0977 3606.3 -17.4463 3606.3 -11.2969 c 0
 3606.3 37.5762 3507.58 117.895 3452.42 118.533 c 0
 3451.8 118.536 l 0
 3398.13 118.536 3297.34 39.3438 3297.34 -8.03125 c 0
 3297.34 -15.6836 3299.97 -22.5059 3305.86 -28.0293 c 0
 3342.86 -62.7861 3402.98 -115.213 3453.51 -115.529 c 0
 3453.67 -115.531 3453.84 -115.531 3454 -115.531 c 0x800460
 3504.21 -115.531 3574.02 -67.541 3601.32 -28.0293 c 0
3380.75 7.47852 m 0
 3384.48 41.3643 3411.16 55.2227 3453.82 55.251 c 0
 3453.92 55.252 l 0
 3496.81 55.252 3519.26 35.0381 3522.47 3.51367 c 0
 3522.67 1.54492 3522.77 -0.417969 3522.77 -2.36719 c 0
 3522.77 -31.6484 3500.25 -57.9287 3457.72 -58.0195 c 0
 3457.51 -58.0205 l 0x020040
 3414.46 -58.0205 3380.48 -29.4023 3380.48 2.54004 c 0
 3380.48 4.17773 3380.57 5.82617 3380.75 7.47852 c 0
3666.64 -91.9355 m 0
 3696.36 -92.1621 3710.83 -111.626 3710.83 -131.314 c 0
 3710.83 -151.585 3695.49 -172.094 3665.67 -172.094 c 0
 3665.58 -172.094 3665.48 -172.093 3665.39 -172.092 c 0
 3635.86 -171.962 3621.2 -152.189 3621.2 -132.318 c 0x000050
 3621.2 -112.178 3636.26 -91.9346 3666.13 -91.9346 c 0
 3666.3 -91.9346 3666.47 -91.9355 3666.64 -91.9355 c 0
3240.54 -92.0918 m 0
 3240.71 -92.0918 3240.88 -92.0908 3241.05 -92.0908 c 0
 3270.96 -92.0908 3286.06 -112.387 3286.06 -132.553 c 0
 3286.06 -152.398 3271.44 -172.118 3241.95 -172.248 c 0
 3241.85 -172.249 3241.76 -172.25 3241.66 -172.25 c 0
 3211.81 -172.25 3196.43 -151.688 3196.43 -131.393 c 0x4000c0
 3196.43 -111.73 3210.86 -92.3184 3240.54 -92.0918 c 0
EndSplineSet
Validated: 1
EndChar

StartChar: Sep2
Encoding: 80 80 10
Width: 10263
VWidth: 0
Flags: W
HStem: -406.807 32.6946<5093.52 5170.44> -324.428 60.3053<4504.14 4512.19 4509.35 4597.3 5672.6 5758.44> -73.6562 30.2481<2869.78 2971.15 7293.4 7391.48> -60.7625 172.76<5062.04 5201.03> -42.9799 24.9174<2661.4 2747.2 3095.23 3177.31 7085.7 7167.64 7515.68 7601.48> -33.7148 21.4509<4719.07 4848.7 5416.02 5543.79> -16.7564 39.4439<2214.49 2594.78 7667.92 8049.69> -9.25 36.4062<3.52602 201.955 10061.1 10260.1> 13.0377 25.4184<3255.34 3321.5 3321.5 3525.14 4382.1 4551.32 5711.53 5880.75 6737.71 6941.37 6941.37 7007.53> 53.4075 21.5455<4720.52 4849.96 5411.87 5542.31> 67.6572 27.7197<3094.23 3174.57> 75.0018 25.092<2661.45 2745.04 7093.44 7129.41 7129.41 7164.2 7516.81 7601.64> 77.8673 30.4461<2866.85 2968.26 7294.59 7396.35> 293.473 69.2254<4506.6 4614.9 5647.97 5758.39> 409.77 25.9797<5098.68 5166.4>
VStem: 2630.95 23.0002<-11.3349 66.7849> 2691.41 12.0715<2.0089 53.2023> 2754 25.4204<-11.6804 66.2186> 2820.08 33.9641<-27.8635 65.4895> 2910.17 17.5686<-20.655 54.1565> 2984.2 33.6719<-30.6008 61.2253> 3064.4 24.7195<-15.1423 62.5599> 3130.17 10.3499<-5.15888 45.5348> 3181.16 25.4688<-16.6525 60.5108> 4370.25 109.034<-239.29 -169.448> 4383.86 110.443<194.901 231.793 231.793 239.415 235.604 282.453> 4647.8 37.6099<121.519 260.283> 4650.94 23.1816<-226.856 -78.0738> 4693 24.4375<-9.07565 48.274> 5052.48 157.906<-42.3896 91.5693> 5061.11 29.6191<-371.122 -271.558> 5069.98 25.8984<295.403 407.68> 5168.91 22.251<300.632 407.336> 5172.92 26.8389<-371.141 -270.786> 5545.44 24.4062<-7.47635 48.7504> 5577.44 37.625<122.024 260.783> 5587.18 24.7388<-226.232 -77.6052> 5768.57 110.413<195.401 232.275 232.275 239.92 236.097 283.078> 5783.59 109.002<-238.813 -168.951> 7056.25 25.4531<-16.1584 60.9789> 7122.35 10.3188<-5.42322 46.0191> 7173.74 24.7178<-14.6506 63.0294> 7244.99 33.6719<-30.0941 61.7325> 7335.14 17.5376<-20.1797 54.655> 7408.82 33.9502<-27.3746 65.1854> 7483.45 25.3916<-11.1801 66.4357> 7559.38 12.0557<2.507 53.6868> 7608.9 23.0317<-10.8383 67.2729>
LayerCount: 2
Fore
SplineSet
5113.17 247.442 m 1xc447ff0a61ff
 5096.49 281.734 5069.98 337.299 5069.98 379.204 c 0
 5069.98 411.279 5085.51 435.35 5132.88 435.75 c 0
 5133.97 435.755 l 0
 5177.21 435.755 5191.16 413.86 5191.16 384.345 c 0xc447ff09a1ff
 5191.16 340.672 5160.63 280.315 5149.28 249.514 c 1
 5167.06 224.625 l 2
 5186.83 200.205 5205.24 176.007 5235.97 159 c 1
 5305.72 238.438 l 2
 5314.46 248.391 5330.02 261.474 5343.03 261.474 c 0
 5349.46 261.474 5355.26 258.28 5359.31 249.938 c 0
 5360.33 247.837 5360.8 245.646 5360.8 243.369 c 0
 5360.8 214.2 5283.16 171.057 5281.25 127.188 c 0
 5281.23 126.19 l 0
 5281.23 100.293 5324.58 71.9673 5359.94 45.6562 c 0
 5360.73 45.2012 5363.73 44.7832 5366.59 44.7188 c 1
 5397.54 58.0205 5452.62 74.953 5497.64 74.953 c 0
 5537.73 74.953 5569.84 61.5251 5569.84 20.1476 c 0
 5569.84 20.125 l 0
 5569.83 -19.5895 5537.73 -33.246 5497.85 -33.246 c 0
 5448.89 -33.246 5388.2 -12.6578 5360.81 5.5625 c 1
 5321.97 -30.2335 5295.28 -50.3414 5295.28 -77.5754 c 0
 5295.28 -79.5115 5295.41 -81.4836 5295.69 -83.5 c 0
 5303.03 -137.305 5379.23 -164.262 5379.23 -209.035 c 0
 5379.23 -210.615 5379.13 -212.217 5378.94 -213.844 c 0
 5378.44 -217.935 5376.41 -219.746 5373.2 -219.746 c 0
 5349.36 -219.746 5260.39 -120.271 5248.97 -111.844 c 1
 5244.38 -112.5 l 1
 5217.33 -134.188 5170.68 -180.348 5150 -212.125 c 1
 5169.51 -247.53 5199.75 -306.055 5199.75 -349.709 c 0
 5199.75 -382.222 5182.98 -406.485 5132.49 -406.804 c 0
 5131.5 -406.807 l 0
 5079.14 -406.807 5061.11 -380.356 5061.11 -345.557 c 0
 5061.11 -302.612 5088.57 -246.951 5112.84 -212.594 c 1
 5086.17 -177.39 5048.09 -135.545 5018.47 -113 c 1
 5013.88 -112.312 l 1
 5002.45 -120.74 4913.48 -220.215 4889.65 -220.215 c 0
 4886.43 -220.215 4884.4 -218.403 4883.91 -214.312 c 1
 4908.57 -158.032 4958.7 -141.846 4986.01 -90.8545 c 1
 4973.01 -59.1904 4943.64 -33.2471 4902.03 5.09375 c 1
 4874.64 -13.1265 4813.96 -33.7148 4764.99 -33.7148 c 0
 4725.11 -33.7148 4693.01 -20.0583 4693 19.6562 c 0
 4693 19.6789 l 0
 4693 61.0451 4725.1 74.47 4765.17 74.47 c 0
 4810.2 74.47 4865.3 57.5238 4896.25 44.2188 c 1
 4899.11 44.2832 4902.11 44.7324 4902.91 45.1875 c 0
 4938.27 71.4986 4981.62 99.7935 4981.62 125.69 c 0
 4981.59 126.688 l 0
 4979.69 170.557 4902.04 213.727 4902.04 242.9 c 0
 4902.04 245.177 4902.51 247.369 4903.53 249.469 c 0
 4907.58 257.805 4913.38 260.997 4919.8 260.997 c 0
 4932.83 260.997 4948.41 247.894 4957.16 237.938 c 2
 5026.91 158.5 l 1
 5057.61 175.493 5075.96 199.695 5095.72 224.094 c 0
 5098.96 227.749 5109.68 244.123 5113.17 247.442 c 1xc447ff0a61ff
5133.62 409.75 m 0
 5133.09 409.764 5132.56 409.77 5132.03 409.77 c 0
 5105.35 409.77 5095.88 392.397 5095.88 369.675 c 0
 5095.88 337.085 5115.37 293.49 5131.55 274.374 c 1
 5146.37 293.624 5168.91 339.23 5168.91 372.201 c 0
 5168.91 393.212 5159.76 409.092 5133.62 409.75 c 0
5727.34 362.688 m 0
 5728.17 362.695 5729 362.699 5729.83 362.699 c 0
 5806.99 362.699 5878.99 330.8 5878.99 240.126 c 0
 5878.99 235.724 5878.82 231.183 5878.47 226.5 c 0
 5872.47 167.628 5826.48 126.4 5777.55 126.4 c 0
 5750.99 126.4 5723.57 138.542 5701.19 166.594 c 1
 5700.74 168.351 5700.53 169.956 5700.53 171.427 c 0
 5700.53 196.889 5764.1 182.092 5767.81 218.281 c 0
 5768.31 223.166 5768.57 227.912 5768.57 232.489 c 0
 5768.57 268.12 5752.82 293.473 5712.08 293.473 c 0
 5711.2 293.473 5710.31 293.461 5709.41 293.438 c 0
 5645.53 291.755 5615.06 245.887 5615.06 194.032 c 0xc007ff0835ff
 5615.06 143.749 5643.71 87.8361 5698.31 61.125 c 0
 5723.96 48.5808 5755.25 37.2605 5784.4 37.2605 c 0
 5790.39 37.2605 5796.29 37.7383 5802.03 38.7812 c 0
 5951.32 65.9033 6047.51 141.95 6142.62 258 c 1
 6143.2 258 6144.75 259.013 6146.06 260.25 c 0
 6149.03 263.037 6157.04 263.395 6159.94 260.875 c 0
 6241.6 193.387 6267.49 167.396 6560.28 65.4688 c 0
 6681.68 41.4664 6804.72 38.9249 6928.19 38.9249 c 0
 6950.54 38.9249 6972.91 39.0082 6995.28 39.0625 c 0
 7003.82 38.2998 7013.75 33.5092 7013.75 23.8297 c 0
 7013.75 23.7188 l 0
 7013.48 17.7256 7010.82 15.5605 7007.53 11.25 c 1
 6962.66 12.3753 6918.73 13.5377 6875.28 13.5377 c 0
 6777.02 13.5377 6681.17 7.59486 6582.16 -18.1562 c 0
 6422.02 -56.3975 6274.42 -101.664 6158.22 -224 c 1
 6081.09 -116.087 5946.78 9.58857 5805.83 9.58857 c 0
 5800.15 9.58857 5794.47 9.38508 5788.78 8.96875 c 0
 5724.26 4.24805 5665.12 -19.25 5631.84 -79.5 c 0
 5618.3 -104.026 5611.92 -126.355 5611.92 -149.801 c 0
 5611.92 -167.433 5615.52 -185.697 5622.41 -206 c 0
 5634 -240.223 5672.9 -263.649 5707.68 -263.649 c 0
 5718.9 -263.649 5729.69 -261.21 5739 -255.906 c 0
 5770.5 -237.955 5783.59 -215.116 5783.59 -196.534 c 0
 5783.59 -187.26 5780.33 -179.047 5774.47 -173.031 c 0
 5752.97 -150.971 5709.27 -155.307 5701.97 -120.031 c 0
 5701.71 -118.787 5701.59 -117.555 5701.59 -116.339 c 0
 5701.59 -94.0877 5743.53 -76.8624 5784.46 -76.8624 c 0
 5804.72 -76.8624 5824.73 -81.0819 5839.28 -91 c 0
 5876.1 -116.091 5892.6 -150.797 5892.6 -185.805 c 0
 5892.6 -249.781 5837.5 -314.768 5750.66 -323.938 c 1
 5650.72 -319.218 5587.18 -243.676 5587.18 -155.721 c 0xc007ff082bff
 5587.18 -130.541 5592.39 -104.344 5603.44 -78.5 c 0
 5640.81 -14.0752 5666.17 -11.4746 5713.28 23.2812 c 1
 5713.32 24.9053 5710 29 5708.66 29 c 1
 5629.22 66.3975 5593.26 100.58 5579.31 189 c 0
 5578.05 197.008 5577.44 205.017 5577.44 212.958 c 0xc007ff0831ff
 5577.44 288.012 5632.22 357.004 5710.94 362.094 c 0
 5716.41 362.448 5721.89 362.64 5727.34 362.688 c 0
4531.44 362.219 m 0
 4532.98 362.223 l 0
 4539.27 362.223 4545.61 362.003 4551.94 361.594 c 0
 4630.65 356.505 4685.41 287.518 4685.41 212.468 c 0xc087ff6821ff
 4685.41 204.524 4684.79 196.511 4683.53 188.5 c 0
 4669.59 100.08 4633.62 65.8975 4554.19 28.5 c 1
 4552.84 28.5 4549.56 24.4053 4549.59 22.7812 c 1
 4596.7 -11.9746 4622.03 -14.5439 4659.41 -78.9688 c 1
 4669.32 -103.881 4674.12 -129.99 4674.12 -155.501 c 0
 4674.12 -243.527 4616.93 -324.428 4515.09 -324.428 c 0
 4514.13 -324.428 4513.16 -324.421 4512.19 -324.406 c 0
 4425.34 -315.237 4370.25 -250.263 4370.25 -186.295 c 0
 4370.25 -151.293 4386.74 -116.591 4423.56 -91.5 c 0
 4438.12 -81.5819 4458.13 -77.3624 4478.38 -77.3624 c 0
 4519.31 -77.3624 4561.26 -94.5877 4561.26 -116.839 c 0
 4561.26 -118.055 4561.13 -119.287 4560.88 -120.531 c 0
 4553.57 -155.807 4509.91 -151.471 4488.41 -173.531 c 0
 4482.54 -179.547 4479.28 -187.757 4479.28 -197.026 c 0
 4479.28 -215.598 4492.38 -238.424 4523.88 -256.375 c 0
 4533.19 -261.682 4543.98 -264.123 4555.21 -264.123 c 0
 4589.97 -264.123 4628.84 -240.716 4640.44 -206.5 c 0
 4647.32 -186.178 4650.94 -167.894 4650.94 -150.241 c 0xc087ff9821ff
 4650.94 -126.804 4644.57 -104.478 4631.03 -79.9688 c 0
 4597.75 -19.7188 4538.59 3.7793 4474.06 8.5 c 0
 4468.37 8.91623 4462.69 9.11968 4457.02 9.11968 c 0
 4316.06 9.11968 4181.76 -116.586 4104.62 -224.5 c 1
 3988.43 -102.164 3840.82 -56.8975 3680.69 -18.6562 c 0
 3581.68 7.09486 3485.84 13.0377 3387.59 13.0377 c 0
 3344.14 13.0377 3300.22 11.8753 3255.34 10.75 c 1
 3252.06 15.0605 3249.36 17.2568 3249.09 23.25 c 0
 3249.09 23.3609 l 0
 3249.09 33.0405 3259.02 37.831 3267.56 38.5938 c 0
 3289.94 38.5394 3312.3 38.4561 3334.65 38.4561 c 0
 3458.12 38.4561 3581.17 40.9976 3702.56 65 c 0
 3995.35 166.928 4021.25 192.887 4102.91 260.375 c 0
 4105.8 262.895 4113.81 262.537 4116.78 259.75 c 0
 4118.1 258.513 4119.67 257.5 4120.25 257.5 c 1
 4215.36 141.45 4311.52 65.4033 4460.81 38.2812 c 0
 4466.55 37.2383 4472.45 36.7605 4478.44 36.7605 c 0
 4507.6 36.7605 4538.92 48.0808 4564.56 60.625 c 0
 4619.16 87.3325 4647.8 143.234 4647.8 193.512 c 0
 4647.8 245.375 4617.33 291.255 4553.44 292.938 c 0
 4552.53 292.961 4551.64 292.973 4550.76 292.973 c 0
 4510.03 292.973 4494.3 267.628 4494.3 232.008 c 0
 4494.3 227.425 4494.56 222.672 4495.06 217.781 c 0
 4498.77 181.592 4562.35 196.389 4562.35 170.927 c 0
 4562.35 169.456 4562.14 167.851 4561.69 166.094 c 1
 4539.31 138.042 4511.88 125.9 4485.32 125.9 c 0
 4436.37 125.9 4390.38 167.128 4384.38 226 c 0
 4384.03 230.681 4383.86 235.22 4383.86 239.621 c 0xc087ff6821ff
 4383.86 329.674 4454.88 361.778 4531.44 362.219 c 0
5130.94 220.438 m 1
 5130.41 220.404 5129.87 220.423 5129.34 220.312 c 1
 5126.48 218.861 5124.12 216.621 5121.5 214.781 c 1
 5103.36 191.115 5075.62 161.29 5055.03 139.406 c 1
 5053.69 135.625 l 1
 5078.98 120.147 5105.71 111.997 5132.41 111.997 c 0
 5158.5 111.997 5184.54 119.784 5209.16 136.125 c 1
 5207.81 139.906 l 1
 5194.54 162.715 5161.78 189.723 5143.22 212.875 c 1
 5139.46 215.707 5135.7 219.631 5130.94 220.438 c 1
6180.88 172.531 m 0
 6179.02 172.441 6177.26 171.303 6174.78 169.094 c 0
 6097.82 107.316 6013.37 48.4141 5913.94 31 c 0
 5908.07 30.4102 5907.2 28.915 5912.12 27.9062 c 0
 6012.21 -0.920898 6103.21 -68.8291 6185.28 -129.906 c 1
 6282.8 -69.9453 6419.22 8.31152 6551.72 15.1875 c 1
 6554.38 19.4053 6555.71 22.8086 6553.28 24.0625 c 0
 6437.66 81.9678 6294.04 87.9951 6187.66 169.719 c 0
 6184.72 171.667 6182.73 172.621 6180.88 172.531 c 0
4081.28 172.031 m 0
 4079.62 171.883 4077.79 170.924 4075.22 169.219 c 0
 3968.84 87.4951 3825.18 81.4678 3709.56 23.5625 c 0
 3707.13 22.3086 3708.49 18.9365 3711.16 14.7188 c 1
 3843.65 7.84277 3980.04 -70.4453 4077.56 -130.406 c 1
 4159.63 -69.3291 4250.64 -1.4209 4350.72 27.4062 c 0
 4355.65 28.415 4354.77 29.9414 4348.91 30.5312 c 0
 4249.47 47.9453 4165.02 106.848 4088.06 168.625 c 0
 4085.27 171.11 4083.42 172.222 4081.28 172.031 c 0
7345.06 108.312 m 0
 7345.55 108.313 l 0
 7410.4 108.313 7442.77 63.3487 7442.77 18.1224 c 0
 7442.77 -27.6333 7409.64 -73.6567 7343.52 -73.6567 c 0
 7343.16 -73.6562 l 0xe00fff0821ff
 7277.45 -73.4903 7244.99 -28.9221 7244.99 16.0597 c 0
 7244.99 61.8562 7278.63 108.081 7345.06 108.312 c 0
2914.72 107.812 m 0
 2915.73 107.831 2916.76 107.816 2917.78 107.812 c 0
 2984.22 107.581 3017.87 61.3454 3017.87 15.5436 c 0
 3017.87 -29.4327 2985.42 -73.9903 2919.72 -74.1562 c 0
 2919.36 -74.1567 l 0
 2853.22 -74.1567 2820.08 -28.1113 2820.08 17.6581 c 0
 2820.08 62.283 2851.59 106.645 2914.72 107.812 c 0
5252.28 100.375 m 1
 5222.9 97.1969 5210.38 65.8335 5210.38 31.6492 c 0xc007ff0c21ff
 5210.38 -4.18714 5224.14 -43.1236 5246.62 -55.9375 c 0
 5249.91 -57.1875 5250.85 -57.1738 5258.69 -55.6562 c 1
 5276.37 -39.1211 5312.94 -0.488281 5334.28 22.9688 c 1
 5313.06 44.2227 5273.82 84.752 5257.53 99.5 c 1
 5255.48 99.6396 5253.11 100.031 5252.28 100.375 c 1
7556.5 100.094 m 0xc817ff0821ff
 7557.24 100.111 7558 100.094 7558.75 100.094 c 0
 7606.96 100.084 7631.93 64.259 7631.93 28.4644 c 0
 7631.93 -6.90321 7607.55 -42.2407 7557.12 -42.9688 c 0
 7556.61 -42.9762 7556.09 -42.9799 7555.58 -42.9799 c 0
 7506.74 -42.9799 7483.45 -9.14044 7483.45 25.6271 c 0
 7483.45 61.7986 7508.66 98.9746 7556.5 100.094 c 0xc817ff0821ff
5010.56 99.9062 m 1
 5009.74 99.5625 5007.37 99.1709 5005.31 99.0312 c 1
 4989.03 84.2832 4949.79 43.7227 4928.56 22.4688 c 1
 4949.91 -0.988281 4986.48 -39.6211 5004.16 -56.1562 c 1
 5012 -57.6738 5012.96 -57.6875 5016.25 -56.4375 c 0
 5038.73 -43.6274 5052.48 -4.70192 5052.48 31.1337 c 0xc007ff0c21ff
 5052.48 65.3379 5039.96 96.7272 5010.56 99.9062 c 1
2704.12 99.625 m 0
 2704.14 99.625 l 0
 2753.43 99.625 2779.42 61.8571 2779.42 25.1263 c 0
 2779.42 -9.64141 2756.14 -43.4799 2707.29 -43.4799 c 0
 2706.78 -43.4799 2706.27 -43.4762 2705.75 -43.4688 c 0
 2655.32 -42.7407 2630.95 -7.39549 2630.95 27.9799 c 0
 2630.95 63.7823 2655.92 99.6157 2704.12 99.625 c 0
7129.41 95.8438 m 2
 7129.44 95.8438 l 2
 7129.62 95.8449 7129.8 95.8455 7129.99 95.8455 c 0
 7175.56 95.8455 7198.46 60.4508 7198.46 24.7096 c 0
 7198.46 -11.7383 7174.65 -48.5465 7126.82 -48.5465 c 0
 7126.26 -48.5465 7125.69 -48.5415 7125.12 -48.5312 c 0
 7078.43 -47.692 7056.25 -14.0857 7056.25 20.489 c 0
 7056.25 57.4474 7081.59 95.5123 7129.41 95.8438 c 2
3133.44 95.375 m 0
 3181.28 95.0601 3206.63 56.9786 3206.63 20.0041 c 0
 3206.63 -14.5782 3184.45 -48.1921 3137.75 -49.0312 c 0
 3137.18 -49.0415 3136.62 -49.0465 3136.06 -49.0465 c 0
 3088.22 -49.0465 3064.4 -12.2179 3064.4 24.244 c 0
 3064.4 59.9867 3087.29 95.3769 3132.86 95.3769 c 0xc027ff0821ff
 3133.05 95.3769 3133.24 95.3763 3133.44 95.375 c 0
7345.25 77.8438 m 0
 7300.75 76.8436 7278.66 45.9427 7278.66 15.59 c 0
 7278.66 -14.1727 7299.9 -43.4082 7342.07 -43.4082 c 0
 7342.26 -43.4082 7342.46 -43.4075 7342.66 -43.4062 c 0
 7386.19 -43.1257 7408.82 -10.9279 7408.82 20.2165 c 0
 7408.82 49.5077 7388.8 77.8673 7347.33 77.8673 c 0xe00fff0821ff
 7346.64 77.8673 7345.95 77.8595 7345.25 77.8438 c 0
2913.56 77.3438 m 0
 2873.43 76.4623 2854.05 48.5459 2854.05 19.7247 c 0
 2854.05 -11.4222 2876.68 -43.6258 2920.22 -43.9062 c 0
 2920.42 -43.9075 2920.61 -43.9082 2920.81 -43.9082 c 0
 2962.97 -43.9082 2984.2 -14.6833 2984.2 15.0738 c 0
 2984.2 45.4317 2962.1 76.3435 2917.59 77.3438 c 0
 2916.22 77.375 2914.89 77.373 2913.56 77.3438 c 0
7559.72 75 m 0
 7526.31 74.7584 7508.85 50.5936 7508.85 26.9517 c 0
 7508.85 4.25112 7524.95 -17.9673 7558.5 -18.0625 c 0
 7558.57 -18.0627 7558.64 -18.0628 7558.71 -18.0628 c 0
 7592.44 -18.0628 7608.9 5.17174 7608.9 28.4221 c 0
 7608.9 51.704 7592.39 75.0018 7560.2 75.0018 c 0xc817ff0821ff
 7560.04 75.0018 7559.88 75.0012 7559.72 75 c 0
2703.12 74.5 m 0
 2702.96 74.5012 2702.8 74.5018 2702.64 74.5018 c 0
 2670.45 74.5018 2653.95 51.204 2653.95 27.922 c 0
 2653.95 4.6717 2670.4 -18.5628 2704.14 -18.5628 c 0
 2704.2 -18.5628 2704.27 -18.5627 2704.34 -18.5625 c 0
 2737.9 -18.4673 2754 3.75128 2754 26.452 c 0
 2754 50.0937 2736.53 74.2584 2703.12 74.5 c 0
7129.06 68.125 m 0
 7097.23 67.9544 7081.7 45.2196 7081.7 22.6536 c 0
 7081.7 0.337701 7096.89 -21.8131 7126.5 -21.8131 c 0
 7126.6 -21.8131 7126.69 -21.8129 7126.78 -21.8125 c 0
 7157.38 -21.6707 7173.74 2.41907 7173.74 25.6282 c 0
 7173.74 47.2596 7159.53 68.1259 7129.41 68.1259 c 0
 7129.06 68.125 l 0
3133.81 67.6562 m 0
 3133.46 67.6572 l 0xc027ff0821ff
 3103.34 67.6572 3089.12 46.7725 3089.12 25.1274 c 0
 3089.12 1.91551 3105.47 -22.1708 3136.06 -22.3125 c 0
 3136.15 -22.3129 3136.25 -22.3131 3136.34 -22.3131 c 0
 3165.96 -22.3131 3181.16 -0.143242 3181.16 22.1863 c 0
 3181.16 44.7545 3165.64 67.4857 3133.81 67.6562 c 0
7365.19 64.1875 m 0
 7365.42 64.1987 7365.66 64.2042 7365.9 64.2042 c 0
 7371.05 64.2042 7376.55 61.6463 7376.55 58.3512 c 0
 7376.55 57.3095 7376 56.1941 7374.72 55.0625 c 0
 7360.09 42.1827 7352.68 32.4282 7352.68 21.6656 c 0
 7352.68 11.8488 7358.84 1.19327 7371.31 -13.4375 c 0
 7372.95 -15.3639 7373.77 -17.2562 7373.77 -18.8764 c 0
 7373.77 -21.6397 7371.4 -23.6117 7366.7 -23.6117 c 0
 7365.03 -23.6117 7363.07 -23.3629 7360.81 -22.8125 c 0
 7343.52 -18.588 7335.14 0.385871 7335.14 19.5597 c 0
 7335.14 40.2858 7344.93 61.2456 7363.81 64.0625 c 0
 7364.26 64.1299 7364.72 64.166 7365.19 64.1875 c 0
2896.28 63.6875 m 0
 2897.22 63.7285 2898.17 63.6963 2899.06 63.5625 c 0
 2917.95 60.7456 2927.74 39.7945 2927.74 19.0766 c 0
 2927.74 -0.0898514 2919.36 -19.0567 2902.06 -23.2812 c 0
 2899.8 -23.8336 2897.83 -24.0832 2896.16 -24.0832 c 0
 2891.46 -24.0832 2889.08 -22.1171 2889.08 -19.3577 c 0
 2889.08 -17.7441 2889.89 -15.8592 2891.53 -13.9375 c 0
 2904 0.693274 2910.17 11.3488 2910.17 21.1656 c 0
 2910.17 31.9282 2902.76 41.6827 2888.12 54.5625 c 0
 2886.84 55.6916 2886.29 56.8046 2886.29 57.8443 c 0
 2886.29 60.9957 2891.34 63.4738 2896.28 63.6875 c 0
7580.66 56.3438 m 0
 7585.01 56.584 7587.53 54.0156 7584.28 51.375 c 0
 7574.82 43.6745 7571.44 36.2639 7571.44 28.9979 c 0
 7571.44 21.0983 7575.43 13.3696 7579.97 5.625 c 0
 7580.41 4.86702 7580.61 4.20919 7580.61 3.65173 c 0
 7580.61 2.10884 7579.09 1.33488 7577.06 1.33488 c 0
 7574.1 1.33488 7570.06 2.9681 7568 6.25 c 0
 7562.94 14.3133 7559.38 21.8136 7559.38 29.3483 c 0
 7559.38 36.7692 7562.83 44.2233 7571.72 52.2812 c 0
 7574.78 55.0566 7578.05 56.2002 7580.66 56.3438 c 0
2682.19 55.875 m 0
 2684.8 55.7314 2688.06 54.5566 2691.12 51.7812 c 0
 2700.02 43.7143 2703.48 36.2525 2703.48 28.8233 c 0
 2703.48 21.2971 2699.93 13.8044 2694.88 5.75 c 0
 2692.82 2.4681 2688.76 0.834878 2685.8 0.834878 c 0
 2683.76 0.834878 2682.23 1.61013 2682.23 3.15557 c 0
 2682.23 3.71221 2682.43 4.36876 2682.88 5.125 c 0
 2687.41 12.8696 2691.41 20.5983 2691.41 28.4979 c 0
 2691.41 35.7639 2688.02 43.1745 2678.56 50.875 c 0
 2675.32 53.5156 2677.84 56.1152 2682.19 55.875 c 0
5495.59 53.4062 m 0
 5495.41 53.4071 5495.22 53.4075 5495.03 53.4075 c 0xc047ff0821ff
 5459.19 53.4075 5414.32 38.3793 5396.25 20.8125 c 1
 5415.31 5.54768 5463.67 -11.7639 5500.2 -11.7639 c 0
 5525.44 -11.7639 5545.04 -3.50148 5545.44 19.4062 c 0
 5545.44 20.0994 l 0
 5545.44 44.108 5523.28 53.2834 5495.59 53.4062 c 0
4767.28 52.9062 m 0
 4739.6 52.7834 4717.43 43.608 4717.43 19.5994 c 0
 4717.44 18.9062 l 0
 4717.84 -4.00148 4737.44 -12.2639 4762.68 -12.2639 c 0xc407ff0821ff
 4799.21 -12.2639 4847.56 5.04768 4866.62 20.3125 c 1
 4848.55 37.8793 4803.69 52.9075 4767.85 52.9075 c 0
 4767.66 52.9075 4767.47 52.9071 4767.28 52.9062 c 0
7140.47 48.875 m 0
 7143.34 48.8721 7145.5 48.043 7144.28 46.0938 c 0
 7136.46 33.6147 7132.67 26.6213 7132.67 19.6491 c 0
 7132.67 13.0573 7136.06 6.48438 7142.62 -4.6875 c 0
 7143.73 -6.57324 7136.34 -9.0752 7131.97 -5.46875 c 0
 7125.44 -0.0857023 7122.35 9.88023 7122.35 19.9136 c 0
 7122.35 30.6231 7125.87 41.4095 7132.47 46.7812 c 0
 7134.04 48.0635 7137.6 48.8779 7140.47 48.875 c 0
3122.38 48.375 m 0
 3125.24 48.3779 3128.83 47.5635 3130.41 46.2812 c 0
 3137.01 40.9095 3140.52 30.1315 3140.52 19.43 c 0
 3140.52 9.40417 3137.44 -0.554452 3130.91 -5.9375 c 0
 3126.53 -9.54395 3119.11 -7.04199 3120.22 -5.15625 c 0
 3126.79 6.01564 3130.17 12.5885 3130.17 19.1804 c 0
 3130.17 26.1526 3126.38 33.146 3118.56 45.625 c 0
 3117.34 47.5742 3119.51 48.3721 3122.38 48.375 c 0
9858.59 27.8438 m 0
 9961.17 27.835 10063.7 27.7891 10166.3 27.6562 c 0
 10198.2 27.6152 10226.6 19.5479 10253.8 7.78125 c 0
 10261.2 5.33984 10262.1 4.6377 10262.9 0.5 c 0
 10263 -0.25054 10263.1 -0.942437 10263.1 -1.58004 c 0
 10263.1 -7.4342 10257.1 -8.71168 10244.5 -8.78125 c 0
 9486.79 -12.9688 8384.66 -16.2573 7857.2 -16.2573 c 0
 7796.93 -16.2573 7744.17 -16.2144 7700.28 -16.125 c 0
 7678.8 -16.0813 7667.63 -11.6914 7667.63 -1.73995 c 0
 7667.66 -0.875 l 0
 7669.88 18.8896 7686.62 23.1357 7704.94 23.1875 c 0
 8413.85 25.1811 9124.2 27.8448 9834.07 27.8448 c 0
 9842.25 27.8448 9850.42 27.8445 9858.59 27.8438 c 0
404.25 27.375 m 0
 412.268 27.3757 420.285 27.376 428.303 27.376 c 0
 428.498 27.3761 l 0
 1138.46 27.3761 1848.94 24.6814 2557.94 22.6875 c 0
 2576.26 22.6357 2592.97 18.3896 2595.19 -1.375 c 0
 2595.21 -2.23995 l 0
 2595.21 -12.1914 2584.04 -16.5813 2562.56 -16.625 c 0
 2518.97 -16.7138 2466.63 -16.7564 2406.88 -16.7564 c 0xc207ff0821ff
 1879.91 -16.7564 776.681 -13.4408 18.3438 -9.25 c 0
 5.75914 -9.18043 -0.211596 -7.92833 -0.211596 -2.07897 c 0
 -0.211596 -1.44197 -0.140787 -0.75045 0 0 c 0
 0.776367 4.1377 1.65723 4.83984 9.125 7.28125 c 0
 36.3115 19.0479 64.6387 27.1152 96.5625 27.1562 c 0xc107ff0821ff
 199.112 27.2891 301.674 27.3662 404.25 27.375 c 0
5208.66 -87.6875 m 1
 5186.14 -69.7573 5158.91 -60.7625 5131.69 -60.7625 c 0xd007ff0821ff
 5104.27 -60.7625 5076.85 -69.884 5054.22 -88.1875 c 1
 5050.05 -93.2031 5049.39 -95.2432 5050.12 -101.125 c 0
 5050.68 -105.583 5051.25 -106.809 5053.06 -107.5 c 1
 5080.23 -132.175 5098.19 -148.233 5127.5 -184.562 c 0
 5129.31 -186.97 5131.1 -188.952 5131.47 -188.969 c 1
 5132.78 -187.688 5134.12 -186.425 5135.34 -185.062 c 0
 5157.24 -157.965 5182.76 -132.289 5209.81 -107 c 1
 5211.63 -106.309 5212.19 -105.083 5212.75 -100.625 c 0
 5213.48 -94.7432 5212.83 -92.7031 5208.66 -87.6875 c 1
5131.28 -240.531 m 1
 5131.06 -240.862 5130.85 -241.148 5130.62 -241.5 c 0
 5113.07 -265.928 5090.73 -307.719 5090.73 -337.866 c 0
 5090.73 -358.374 5101.07 -373.493 5130.28 -374.094 c 0
 5130.88 -374.106 5131.47 -374.112 5132.06 -374.112 c 0
 5161.93 -374.112 5172.92 -358.125 5172.92 -336.385 c 0xc007ff0a61ff
 5172.92 -307.011 5152.86 -267.135 5132.25 -242 c 0
 5131.91 -241.479 5131.6 -241.006 5131.28 -240.531 c 1
EndSplineSet
Validated: 1
EndChar

StartChar: Sep3
Encoding: 81 81 11
Width: 9428
VWidth: 0
Flags: W
HStem: -150.891 28.808<4044.32 4398.03 4994.23 5319.53 5345.72 5347.56 5347.56 5527.55> -109.273 46.6521<3291.65 3353.11 3344.88 3361.34 6030.76 6047.62 6039.19 6101.44> -48.2088 25.0116<2707.48 2780.8 6611.36 6685.78> -24.9219 14.9912<588.458 1249.61 8143.34 8804.48> 77.5543 24.4327<4326.81 4401.9 4991.01 5066.09> 102.809 25.886<2300.83 2596.66 2635.28 3015.77 3357.84 3605.02 5787.91 5858.77 5823.34 6033.14 6377.18 6635.51> 110.63 24.378<2427.24 2743.99 6648.96 6965.71> 118.455 48.1<3983.94 4058.45 5339.34 5408.13> 133.522 32.127<4639.92 4752.32>
VStem: 2673.03 31.54<-22.3153 62.6658> 3227.41 60.77<-59.0391 18.3322> 3935.21 31.01<-8.05 101.115> 4060.41 40.53<44.8137 116.317> 4293.72 26.21<-7.72386 71.2677> 4957.51 24.8301<13.1441 70.1815> 5072.98 26.21<-8.38009 70.6232> 5292.01 40.4805<44.2338 112.829> 5426.71 30.98<-8.70403 96.8798> 6104.73 60.7998<-59.7066 17.6696> 6688.38 31.5<-22.9715 62.0089>
LayerCount: 2
Fore
SplineSet
4700.54 165.649 m 0xc8fff0
 4760.35 165.657 4795.96 123.022 4827.84 81.0625 c 0
 4831.42 75.0521 4834.16 70.4749 4834.16 66.09 c 0
 4834.16 63.5348 4833.23 61.045 4830.98 58.375 c 0
 4803.2 23.6758 4766.95 -5.33691 4724.29 -32.4219 c 1
 4774.94 -62.109 4842.12 -71.0607 4895.33 -71.0607 c 0
 4919.6 -71.0607 4940.95 -69.1993 4956.52 -66.5938 c 1
 4990.81 -54.4609 5046.27 -23.6816 5065.78 9.01562 c 0
 5070.75 17.349 5072.98 25.8488 5072.98 33.8877 c 0
 5072.98 57.3572 5053.99 76.8981 5028.81 76.8981 c 0
 5028.52 76.8981 5028.24 76.8956 5027.95 76.8906 c 0
 4994.23 76.3018 4985.71 50.1133 4982.34 31.4688 c 0
 4979.9 17.9424 4978.92 13.1406 4973.02 13.1406 c 0
 4968.04 13.1406 4962.92 17.3242 4960.17 25.7031 c 0
 4958.38 31.1849 4957.51 36.6945 4957.51 42.1046 c 0
 4957.51 72.4608 4984.78 99.6863 5028 101.312 c 0
 5029.15 101.356 5030.29 101.377 5031.43 101.377 c 0
 5070.96 101.377 5099.19 75.2707 5099.19 40.7509 c 0
 5099.19 32.4805 5097.57 23.7273 5094.09 14.7344 c 0
 5075.19 -34.2256 5010.42 -76.833 4951.92 -98.8906 c 1
 4983.72 -109.918 5061.79 -122.739 5141.44 -122.739 c 0
 5207.8 -122.739 5275.25 -113.841 5317.97 -87.5938 c 0
 5377.52 -46.3525 5388.71 -33.4912 5405.91 -13.3906 c 0
 5419.98 3.05997 5426.71 24.1638 5426.71 44.5501 c 0
 5426.71 62.993 5421.2 80.8487 5410.64 94.1406 c 0
 5397.23 111.022 5381.21 117.799 5367.14 117.799 c 0
 5358.2 117.799 5350.05 115.066 5343.84 110.453 c 0
 5336.39 104.916 5332.49 94.2192 5332.49 82.5047 c 0
 5332.49 69.6632 5337.18 55.5985 5347.03 45.7656 c 2
 5354.53 38.5 l 1
 5350.88 35.7344 l 1
 5347.05 34.7199 5343.35 34.2423 5339.79 34.2423 c 0
 5311.52 34.2423 5292.01 64.3076 5292.01 94.8619 c 0
 5292.01 110.771 5297.3 126.813 5309.39 138.812 c 0
 5327.25 156.539 5348.61 165.898 5370 165.898 c 0
 5394.4 165.898 5418.85 153.72 5438.2 127.891 c 0
 5451.9 109.609 5457.69 87.8796 5457.69 65.9649 c 0
 5457.69 29.7742 5441.89 -6.92094 5419.78 -29.4219 c 0
 5384.67 -65.1572 5378.58 -68.5479 5340.66 -95.7031 c 1
 5524.6 3.11473 5721.61 128.695 5935.66 128.695 c 0
 5958.58 128.695 5981.7 127.255 6005.02 124.188 c 0
 6074.34 105.904 6109.89 85.2256 6131.81 57.7656 c 1
 6280.48 97.6475 6404.44 118.023 6567.33 126.672 c 0
 6658.31 131.502 6726.32 134.351 6786.51 134.351 c 0
 6856.52 134.351 6915.95 130.497 6988.64 121.422 c 0
 7426.25 66.7891 7917.75 -5.5918 8316.28 -7.71875 c 0
 8433.57 -8.34473 8544.67 -10.5498 8651.73 -10.5498 c 0
 8908.46 -10.5498 9141.99 2.12854 9382.08 79.6562 c 0
 9386.1 80.954 9388.6 81.5238 9390.31 81.5238 c 0
 9392.87 81.5238 9393.69 80.2577 9395.2 78.25 c 0
 9399.07 73.1211 9398.2 71.2217 9392.91 69.3438 c 0
 9165.57 -11.2981 8894.16 -25.5781 8631.3 -25.5781 c 0
 8524.97 -25.5781 8420.04 -23.2416 8319.98 -22.0156 c 0
 7972.59 -17.7588 7865.31 -12.4375 7003.22 97.6094 c 0
 6956.72 103.544 6857.99 109.973 6768.03 109.973 c 0
 6722.63 109.973 6679.46 108.336 6646.36 104.172 c 1
 6666.34 100.451 6692.49 82.126 6710.11 50.2656 c 0
 6716.53 38.658 6719.88 25.5131 6719.88 12.6427 c 0
 6719.88 -9.81299 6709.69 -31.4329 6687.84 -42.5938 c 0
 6679.14 -47.0401 6669.88 -48.865 6660.72 -48.865 c 0
 6633.69 -48.865 6607.46 -32.9975 6598.69 -21.6875 c 1
 6595.28 -18.7119 6592.42 -9.8218 6592.42 -2.82643 c 0
 6592.42 2.31128 6593.96 6.42697 6597.98 6.42697 c 0
 6599.62 6.42697 6601.68 5.73582 6604.22 4.14062 c 1
 6612.16 -2.59559 6639 -23.8534 6660.33 -23.8534 c 0
 6673.8 -23.8534 6685.07 -15.3716 6687.98 10.6094 c 0
 6688.25 13.0084 6688.38 15.3498 6688.38 17.6345 c 0
 6688.38 76.7334 6600.76 97.912 6549.64 97.912 c 0
 6547.45 97.912 6545.33 97.8732 6543.28 97.7969 c 0
 6406.46 92.6904 6347.92 90.752 6143.86 37.3281 c 1
 6154.91 17.0247 6165.53 -6.63243 6165.53 -30.9603 c 0
 6165.53 -49.8525 6159.13 -69.1491 6141.56 -87.5938 c 0
 6126.09 -103.84 6108.03 -109.93 6090.48 -109.93 c 0
 6063.05 -109.93 6036.85 -95.0604 6023.67 -80.8438 c 0
 6020.31 -77.2157 6018.91 -73.059 6018.91 -69.2599 c 0
 6018.91 -65.7076 6020.13 -62.468 6022.12 -60.2656 c 0
 6023.61 -58.624 6026.22 -58.0123 6029.36 -58.0123 c 0
 6033.65 -58.0123 6038.93 -59.1465 6043.73 -60.3594 c 0
 6051.73 -62.3785 6058.77 -63.2772 6064.93 -63.2772 c 0
 6095.56 -63.2772 6104.73 -41.0689 6104.73 -23.9085 c 0
 6104.73 -22.8336 6104.69 -21.7786 6104.62 -20.75 c 0
 6103.23 0.00195312 6097.89 13.8242 6094.45 18.1562 c 1
 6084.77 16.583 6071.84 12.1826 6060.66 8.5 c 0
 5847.04 -61.8008 5632.85 -126.693 5397.05 -144.594 c 0
 5333.55 -149.415 5275.34 -151.546 5221.93 -151.546 c 0
 4935.56 -151.546 4786.93 -90.2921 4697.9 -53.9512 c 1
 4608.69 -90.357 4457.02 -150.891 4171.32 -150.891 c 0
 4117.71 -150.891 4059.38 -148.76 3995.86 -143.938 c 0
 3760.06 -126.037 3545.87 -61.1445 3332.25 9.15625 c 0
 3321.06 12.8389 3308.19 17.2393 3298.5 18.8125 c 1
 3295.07 14.4805 3289.67 0.658203 3288.28 -20.0938 c 0
 3288.21 -21.1226 3288.18 -22.1779 3288.18 -23.253 c 0
 3288.18 -40.4133 3297.34 -62.6209 3327.98 -62.6209 c 0
 3334.14 -62.6209 3341.17 -61.7223 3349.17 -59.7031 c 0
 3353.98 -58.4903 3359.27 -57.356 3363.57 -57.356 c 0
 3366.73 -57.356 3369.34 -57.9678 3370.83 -59.6094 c 0
 3372.81 -61.8015 3374.02 -65.0214 3374.02 -68.5545 c 0
 3374.02 -72.3668 3372.61 -76.5438 3369.23 -80.1875 c 0
 3356.05 -94.4041 3329.87 -109.273 3302.46 -109.273 c 0
 3284.91 -109.273 3266.86 -103.184 3251.39 -86.9375 c 0
 3233.81 -68.4783 3227.41 -49.1658 3227.41 -30.2594 c 0
 3227.41 -5.94723 3238 17.6934 3249.05 37.9844 c 1
 3044.99 91.4082 2986.45 93.3467 2849.62 98.4531 c 0
 2847.58 98.5294 2845.46 98.5682 2843.27 98.5682 c 0
 2792.15 98.5682 2704.57 77.3903 2704.57 18.2936 c 0
 2704.57 16.008 2704.7 13.6657 2704.97 11.2656 c 0
 2707.88 -14.7154 2719.15 -23.1972 2732.61 -23.1972 c 0
 2753.92 -23.1972 2780.75 -1.93934 2788.69 4.79688 c 1
 2791.22 6.39207 2793.28 7.08322 2794.93 7.08322 c 0
 2798.96 7.08322 2800.51 2.945 2800.51 -2.21233 c 0
 2800.51 -9.20122 2797.66 -18.0616 2794.27 -21.0312 c 1
 2785.49 -32.3412 2759.24 -48.2088 2732.2 -48.2088 c 0xecfff0
 2723.03 -48.2088 2713.76 -46.3839 2705.06 -41.9375 c 0
 2683.22 -30.7766 2673.03 -9.15674 2673.03 13.299 c 0
 2673.03 26.1693 2676.38 39.3142 2682.8 50.9219 c 0
 2700.42 82.7822 2726.61 101.107 2746.59 104.828 c 1
 2713.5 108.992 2670.33 110.63 2624.93 110.63 c 0
 2534.96 110.63 2436.23 104.2 2389.73 98.2656 c 0
 1527.64 -11.7812 1420.37 -17.1025 1072.97 -21.3594 c 0
 972.917 -22.5854 867.982 -24.9219 761.648 -24.9219 c 0
 498.77 -24.9219 227.341 -10.6419 0 70 c 0
 -5.29297 71.8779 -6.16602 73.7773 -2.29688 78.9062 c 0
 -0.7819 80.9139 0.0351903 82.18 2.59333 82.18 c 0
 4.30938 82.18 6.8089 81.6103 10.8281 80.3125 c 0
 251.05 2.74276 484.727 -9.93069 741.627 -9.93069 c 0
 848.569 -9.93069 959.534 -7.73454 1076.67 -7.10938 c 0
 1475.2 -4.98242 1966.7 67.4453 2404.31 122.078 c 0
 2477 131.153 2536.43 135.008 2606.44 135.008 c 0xda7ff0
 2666.63 135.008 2734.64 132.158 2825.62 127.328 c 0
 2988.51 118.68 3112.48 98.3037 3261.14 58.4219 c 1
 3283.07 85.8818 3318.61 106.561 3387.94 124.844 c 0
 3411.25 127.91 3434.36 129.35 3457.28 129.35 c 0
 3671.33 129.35 3868.3 3.72701 4052.25 -95.0938 c 1
 4014.33 -67.9385 4008.24 -64.501 3973.12 -28.7656 c 0
 3951.02 -6.26469 3935.21 30.4304 3935.21 66.6212 c 0
 3935.21 88.5359 3941.01 110.266 3954.7 128.547 c 0
 3974.05 154.376 3998.51 166.555 4022.93 166.555 c 0
 4044.33 166.555 4065.7 157.196 4083.56 139.469 c 0
 4095.65 127.47 4100.94 111.423 4100.94 95.5071 c 0
 4100.94 64.9385 4081.43 34.8525 4053.16 34.8525 c 0
 4049.6 34.8525 4045.9 35.3299 4042.08 36.3438 c 1
 4038.38 39.1562 l 1
 4045.88 46.4219 l 2
 4055.72 56.2547 4060.41 70.3195 4060.41 83.161 c 0
 4060.41 94.8755 4056.51 105.572 4049.06 111.109 c 0
 4042.86 115.722 4034.71 118.455 4025.78 118.455 c 0xc97ff0
 4011.72 118.455 3995.73 111.678 3982.31 94.7969 c 0
 3971.74 81.4916 3966.22 63.6133 3966.22 45.1505 c 0
 3966.22 24.7815 3972.94 3.70121 3987 -12.7344 c 0
 4004.2 -32.835 4015.39 -45.6963 4074.94 -86.9375 c 0
 4117.65 -113.184 4185.11 -122.083 4251.46 -122.083 c 0
 4331.11 -122.083 4409.18 -109.262 4440.98 -98.2344 c 1
 4382.49 -76.1768 4317.72 -33.5693 4298.81 15.3906 c 0
 4295.34 24.3835 4293.72 33.1352 4293.72 41.4029 c 0
 4293.72 75.9102 4321.94 101.987 4361.47 101.987 c 0
 4362.61 101.987 4363.75 101.965 4364.91 101.922 c 0
 4408.13 100.296 4435.4 73.1039 4435.4 42.7579 c 0
 4435.4 37.3497 4434.53 31.8412 4432.73 26.3594 c 0
 4429.99 17.9805 4424.91 13.7969 4419.94 13.7969 c 0
 4414.03 13.7969 4413.05 18.5518 4410.61 32.0781 c 0
 4407.25 50.7227 4398.72 76.958 4365 77.5469 c 0
 4364.71 77.5519 4364.43 77.5543 4364.15 77.5543 c 0
 4338.96 77.5543 4319.93 57.9999 4319.93 34.5196 c 0
 4319.93 26.4879 4322.16 17.9968 4327.12 9.67188 c 0
 4346.63 -23.0254 4402.09 -53.8047 4436.39 -65.9375 c 1
 4453.07 -69.1014 4474.68 -71.2481 4498.97 -71.2481 c 0
 4549.57 -71.2481 4611.8 -61.9296 4665.32 -33.0781 c 1
 4627.9 -14.7959 4580.84 28.4785 4561.92 59.0312 c 1
 4559.68 61.7012 4558.74 64.1911 4558.74 66.7462 c 0
 4558.74 71.1311 4561.49 75.7084 4565.06 81.7188 c 0
 4596.31 122.123 4640.73 165.643 4700.54 165.649 c 0xc8fff0
4697.34 133.328 m 0
 4695.56 133.458 4693.78 133.522 4692.02 133.522 c 0
 4659.21 133.522 4631.38 111.102 4607.58 71.8281 c 1
 4621.18 43.7536 4668.1 7.1443 4697.22 7.1443 c 0
 4697.26 7.1443 4697.3 7.14438 4697.34 7.14453 c 0
 4726.42 7.25195 4773.2 45.752 4785.33 71.1719 c 1
 4759.25 116.556 4734.51 130.631 4697.34 133.328 c 0
3462.56 103.422 m 0
 3405.72 103.316 3350.16 88.9326 3310.5 44.2656 c 1
 3542.99 -37.2432 3808.2 -107.787 4047.23 -125.516 c 1
 3924.85 -53.2686 3807.18 16.7568 3657.09 66.8125 c 0
 3610.96 80.0178 3536.07 103.422 3463.19 103.422 c 0
 3462.56 103.422 l 0
5924.25 102.766 m 0
 5853.11 101.645 5780.79 79.0322 5735.81 66.1562 c 0
 5585.72 16.1006 5468.1 -53.9248 5345.72 -126.172 c 1
 5584.75 -108.443 5849.92 -37.8994 6082.41 43.6094 c 1
 6042.6 88.4422 5986.77 102.809 5929.71 102.809 c 0
 5927.89 102.809 5926.07 102.794 5924.25 102.766 c 0
EndSplineSet
Validated: 33
EndChar

StartChar: Sep4
Encoding: 82 82 12
Width: 10281
VWidth: 0
Flags: W
HStem: -268.448 35.2491<4122.7 4386.67 5904.48 6168.45> -261.14 21.0959<4854.98 4913.71 5377.48 5436.17> -214.734 58.237<4854.61 4869.62 5405.19 5436.52> -196.87 20.0847<3663.59 3669.69 3665.95 3673.43 3673.43 3710.43 6580.34 6627.56> -169.508 9.94539<4252.26 4254.62 6036.53 6038.85> -160.886 59.3474<3663.6 3688.19 6602.89 6627.55> -87.1974 26.8821<4745.89 4887.85 5403.27 5545.22> -67.8881 20.7805<4096.42 4164.82 6126.34 6194.74> -63.5636 91.2668<3796.71 3876.32 6414.81 6493.86> -54.2578 66.5873<5112.58 5179.38> -31.9219 31.9219<1653.55 3237.61 4503.91 4660.17 7055.43 8558.07> -25.6217 27.1179<28 53.5217 53.5217 259.065 3498.14 3684.31 4654.12 4660.47 4660.47 4977.92 5313.24 5765.49 6606.85 6793.02 10032.1 10237.6 10237.6 10261.4> 15.2746 20.8057<4101.47 4169.96 6120.52 6189.65> 35.2368 24.0157<4744.94 4895.72 5395.44 5546.22> 50.3906 75.554<4138.6 4170.56> 70.2407 66.4127<3664.51 3690.01 6601.22 6626.6> 70.2407 99.9624<3628.96 3643.47 3643.47 3643.47 3643.47 3663.89 6627.27 6662.28> 200.585 25.0423<4849.27 4916.9 5372.47 5441.89> 200.847 37.0218<4107.21 4373.26 5918.45 6183.92>
VStem: 3611.61 51.3459<-176.499 -146.966 -166.762 -160.359 136.654 146.539> 3611.61 78.781<-160.172 -108.249 74.9209 136.606> 3723.81 22.1973<-165.08 -62.0278> 3731.22 22.1736<37.5047 135.357> 3790.19 94.1719<-55.8459 21.1176> 3917.17 35.5315<59.3903 149.16> 3922.94 43.3025<-187.557 -89.0503> 4042.59 33.4224<-189.841 -86.7091 61.798 171.707> 4136.09 83.7476<-152.406 -95.1308 54.3373 114.87> 4170.24 49.5957<-132.606 -78.561> 4302.4 39.958<-144.796 -59.6938> 4310.12 35.9531<28.4861 105.359> 4796.31 52.7285<169.394 200.126> 4808.92 45.6875<-240.252 -213.441> 4808.92 78.8496<-215.298 -179.307> 4931.23 26.2578<-223.16 -124.801 93.1844 187.246> 5029.04 43.918<-191.516 -121.414 -130.16 -112.667 -112.667 -62.9486 52.5719 86.1562 86.1562 86.1562 86.1562 112.966 99.5612 155.349> 5110.4 71.2764<-51.3612 9.74215> 5218.19 43.9194<-191.328 -121.226 -129.973 -112.48 -112.48 -62.7501 52.7594 86.3438 86.3438 86.3438 86.3438 113.154 99.7487 155.539> 5333.66 26.2539<-222.949 -124.575 93.3899 187.434> 5403.38 78.8027<-215.109 -159.641> 5436.52 45.6665<-240.021 -213.251> 5442.12 52.7275<169.615 200.318> 5945.08 35.9531<28.6874 69 69 105.546> 5948.8 39.958<-144.597 -59.5063> 6071.32 49.5957<-132.401 -78.3733> 6071.32 83.7104<-152.182 -94.9436 54.5248 115.058> 6216.98 30.9917<-187.142 -94.0786 64.7005 126.269 125.682 126.856 126.856 168.907> 6324.92 43.3022<-187.343 -88.8628> 6338.41 35.5781<59.5778 149.359> 6406.75 94.1719<-55.6446 21.3048> 6537.76 22.1738<37.7191 135.556> 6545.11 22.2388<-164.884 -61.8169> 6600.77 78.7808<-159.984 -108.062 75.1084 136.822> 6628.2 51.3457<-176.312 -146.778 -166.574 -160.172 136.881 146.726>
LayerCount: 2
Fore
SplineSet
6066.53 238.078 m 0x000441203e4240
 6068.34 238.094 6070.15 238.102 6071.97 238.102 c 0
 6088.82 238.102 6105.87 237.405 6123.2 235.969 c 0
 6187.51 230.664 6239.76 202.508 6247.23 139.406 c 0
 6247.72 135.287 6247.97 131.019 6247.97 126.651 c 0
 6247.97 78.4457 6217.73 18.2508 6145.8 15.3281 c 0
 6144.92 15.2925 6144.03 15.2746 6143.13 15.2746 c 0
 6116.3 15.2746 6079.89 31.0625 6075.48 61.3594 c 0
 6074.61 67.4008 6073.85 73.214 6073.85 78.8505 c 0
 6073.85 93.9929 6079.28 107.86 6102.3 121.453 c 0
 6107.75 124.672 6113.55 126.132 6119.26 126.132 c 0
 6138.19 126.132 6156.01 110.079 6156.01 88.8802 c 0
 6156.01 85.4215 6155.54 81.8259 6154.52 78.1406 c 0
 6147.28 52.0195 6145.82 58.4268 6120.72 50.5781 c 0
 6116.44 49.2402 6117.1 43.6758 6120.72 42.0469 c 0
 6129.9 37.9138 6138.52 36.0804 6146.55 36.0804 c 0x000801203e4240
 6190.97 36.0804 6216.98 92.2476 6216.98 125.514 c 0
 6216.98 129.1 6216.68 132.42 6216.06 135.375 c 0
 6204.94 188.91 6137.81 199.281 6097.61 200.672 c 0
 6090.56 200.916 6083.57 201.035 6076.64 201.035 c 0
 5817.76 201.035 5643.26 35.2368 5461 35.2368 c 0
 5457.36 35.2368 5453.72 35.3028 5450.08 35.4375 c 0
 5381.32 38.0222 5335.18 83.3445 5335.18 146.082 c 0
 5335.23 149.672 l 0
 5336.51 195.694 5375.57 225.627 5428.54 225.627 c 0
 5429.28 225.627 5430.02 225.621 5430.77 225.609 c 0
 5460.29 225.135 5492.21 209.774 5494.47 181.031 c 0
 5494.71 177.918 5494.85 174.713 5494.85 171.472 c 0
 5494.85 145.141 5485.98 116.513 5455.36 116.513 c 0
 5454.52 116.513 5453.67 116.535 5452.8 116.578 c 0
 5432.07 117.612 5412.84 123.465 5411.41 147.844 c 0
 5411.41 147.883 l 0
 5411.41 164.212 5422.4 171.235 5438.73 174.609 c 1
 5441.05 177.999 5442.12 181.371 5442.12 184.508 c 0
 5442.12 193.514 5433.33 200.585 5420.11 200.585 c 0
 5419.89 200.585 5419.65 200.582 5419.42 200.578 c 0
 5375.94 199.796 5361.49 165.906 5360.83 148.031 c 0
 5360.77 144.93 l 0
 5360.77 89.3354 5416.6 59.2526 5469.69 59.2526 c 0
 5483.76 59.2526 5497.63 61.364 5510.22 65.6719 c 0
 5667.11 119.354 5846.9 236.118 6066.53 238.078 c 0x000441203e4240
4213.42 237.844 m 0
 4215.29 237.861 4217.16 237.869 4219.03 237.869 c 0
 4441.21 237.869 4622.67 119.575 4780.89 65.4375 c 0
 4793.47 61.1329 4807.33 59.0234 4821.39 59.0234 c 0
 4874.5 59.0234 4930.39 89.1363 4930.39 144.744 c 0
 4930.33 147.844 l 0
 4929.67 165.719 4915.22 199.608 4871.73 200.391 c 0
 4871.5 200.395 4871.27 200.397 4871.04 200.397 c 0
 4857.83 200.397 4849.04 193.3 4849.04 184.281 c 0
 4849.04 181.139 4850.1 177.764 4852.42 174.375 c 1
 4868.76 171 4879.75 164.024 4879.75 147.691 c 0
 4879.75 147.656 l 0
 4878.31 123.277 4859.04 117.425 4838.31 116.391 c 0
 4837.44 116.347 4836.59 116.326 4835.75 116.326 c 0
 4805.14 116.326 4796.31 144.929 4796.31 171.251 c 0
 4796.31 174.503 4796.44 177.72 4796.69 180.844 c 0
 4798.95 209.587 4830.87 224.9 4860.39 225.375 c 0
 4861.14 225.387 4861.88 225.393 4862.62 225.393 c 0
 4915.58 225.393 4954.64 195.505 4955.92 149.484 c 0
 4955.97 145.894 l 0
 4955.97 83.157 4909.83 37.8347 4841.08 35.25 c 0
 4837.43 35.1154 4833.79 35.0494 4830.16 35.0494 c 0
 4647.89 35.0494 4473.39 200.847 4214.52 200.847 c 0
 4207.59 200.847 4200.6 200.728 4193.55 200.484 c 0
 4153.34 199.094 4086.22 188.723 4075.09 135.188 c 0
 4074.48 132.23 4074.18 128.906 4074.18 125.316 c 0
 4074.18 92.0486 4100.16 35.8929 4144.56 35.8929 c 0
 4152.59 35.8929 4161.21 37.7263 4170.39 41.8594 c 0
 4174.01 43.4883 4174.71 49.0527 4170.44 50.3906 c 0
 4145.34 58.2393 4143.88 51.832 4136.64 77.9531 c 0
 4135.62 81.6382 4135.15 85.2338 4135.15 88.6923 c 0
 4135.15 109.891 4152.97 125.945 4171.89 125.945 c 0x000221213e0240
 4177.6 125.945 4183.41 124.485 4188.86 121.266 c 0
 4211.87 107.673 4217.3 93.8054 4217.3 78.663 c 0
 4217.3 73.0265 4216.55 67.2133 4215.67 61.1719 c 0
 4211.27 30.875 4174.81 15.0871 4147.98 15.0871 c 0
 4147.08 15.0871 4146.19 15.105 4145.31 15.1406 c 0
 4073.39 18.063 4043.18 78.2057 4043.18 126.402 c 0
 4043.18 130.774 4043.43 135.048 4043.92 139.172 c 0
 4051.4 202.273 4103.6 230.477 4167.91 235.781 c 0
 4183.26 237.055 4198.44 237.709 4213.42 237.844 c 0
6305.12 192.891 m 0
 6305.71 192.914 6306.3 192.922 6306.91 192.891 c 0
 6323.81 192.034 6373.98 162.413 6373.98 101.017 c 0
 6373.98 100.688 l 0x000001203e02c0
 6373.8 39.0674 6318.18 6.43066 6264.39 -18.2812 c 1
 6320.46 -46.3213 6355.14 -65.877 6368.22 -134.625 c 1
 6365.59 -198.84 6335.17 -214.014 6321.02 -226.125 c 0
 6315.75 -231.517 6307.13 -235.088 6298.89 -235.088 c 0
 6293.33 -235.088 6287.95 -233.467 6283.89 -229.688 c 0
 6281.96 -227.36 6280.63 -222.566 6280.63 -217.699 c 0
 6280.63 -213.384 6281.67 -209.013 6284.27 -206.25 c 0
 6309.42 -179.459 6324.92 -174.501 6324.92 -140.57 c 0x000001203e0340
 6324.92 -135.887 6324.62 -130.654 6324.02 -124.734 c 0
 6319.33 -78.9023 6219.62 -31.3047 6194.27 -20.0625 c 1
 6219.37 -5.63867 6334.43 51.6328 6338.03 90.2812 c 0
 6338.29 93.0058 6338.41 95.6459 6338.41 98.2045 c 0x000001203e02c0
 6338.41 150.045 6288.71 168.458 6288.71 179.424 c 0
 6288.71 179.764 6288.76 180.096 6288.86 180.422 c 0
 6290.05 184.369 6292.43 188.329 6294.06 189.234 c 0
 6297.59 191.3 6301.07 192.73 6305.12 192.891 c 0
3984.25 192.656 m 0
 3989.08 192.9 3993.06 191.408 3997.09 189.047 c 0
 3998.73 188.142 4001.11 184.182 4002.3 180.234 c 0
 4002.39 179.909 4002.44 179.577 4002.44 179.238 c 0
 4002.44 168.271 3952.7 149.858 3952.7 98.011 c 0x000001a03e0240
 3952.7 95.4543 3952.82 92.8162 3953.08 90.0938 c 0
 3956.68 51.4453 4071.74 -5.82617 4096.84 -20.25 c 1
 4071.49 -31.4922 3971.83 -79.0898 3967.14 -124.922 c 0
 3966.54 -130.841 3966.24 -136.076 3966.24 -140.759 c 0
 3966.24 -174.699 3981.74 -179.693 4006.89 -206.484 c 0
 4009.48 -209.247 4010.53 -213.619 4010.53 -217.933 c 0
 4010.53 -222.8 4009.2 -227.594 4007.27 -229.922 c 0
 4003.2 -233.701 3997.82 -235.323 3992.27 -235.323 c 0
 3984.03 -235.323 3975.4 -231.752 3970.14 -226.359 c 0
 3955.98 -214.248 3925.57 -199.027 3922.94 -134.812 c 1x000001603e0240
 3936.01 -66.0645 3970.69 -46.5088 4026.77 -18.4688 c 1
 3972.97 6.24316 3917.35 38.8799 3917.17 100.5 c 0x000001a03e0240
 3917.17 100.829 l 0
 3917.17 162.226 3967.35 191.799 3984.25 192.656 c 0
5277.25 176.062 m 0
 5277.45 176.069 5277.64 176.073 5277.83 176.073 c 0
 5284.1 176.073 5287.47 172.503 5287.47 167.99 c 0
 5287.47 165.523 5286.47 162.773 5284.38 160.172 c 0
 5272.02 144.796 5262.11 132.958 5262.11 113.421 c 0
 5262.11 107.722 5262.96 101.367 5264.83 94.0781 c 0
 5281.09 30.75 5328.05 4.66992 5378.27 3.23438 c 0
 5459.9 0.900391 5531.92 -1.46191 5630.64 -3.5625 c 0
 5632.73 -3.60723 5634.87 -3.62986 5637.08 -3.62986 c 0
 5696.34 -3.62986 5797.96 12.6932 5856.67 55.5469 c 1
 5887.48 41.0312 5916.07 5.08398 5926.7 -13.8281 c 1
 5915.19 -33.3711 5894.47 -65.9375 5860.23 -87.6562 c 1
 5796.11 -45.3896 5708.82 -30.7598 5630.92 -28.0312 c 0
 5544.05 -24.9873 5465.55 -24.9609 5378.08 -24.7031 c 0
 5377.88 -24.7026 5377.69 -24.7023 5377.5 -24.7023 c 0
 5315.89 -24.7023 5274.75 -53.5036 5264.36 -102.516 c 0
 5262.21 -112.628 5261.27 -121.858 5261.27 -130.372 c 0
 5261.27 -160.598 5273.2 -181.822 5285.88 -201.609 c 0
 5287.05 -203.442 5287.56 -205.16 5287.56 -206.717 c 0
 5287.56 -211.817 5282.04 -215.185 5276.04 -215.185 c 0
 5274.11 -215.185 5272.13 -214.834 5270.27 -214.078 c 0
 5225.6 -195.934 5213.03 -140.803 5213.03 -112.707 c 0
 5213.03 -107.842 5213.41 -103.787 5214.06 -100.875 c 0
 5230.4 -28.0039 5273.08 -17.4932 5293.8 -11.8125 c 1
 5272.35 -2.15918 5229.94 18.0684 5218.94 86.3438 c 0
 5218.44 89.4443 5218.19 92.7343 5218.19 96.1525 c 0
 5218.19 129.42 5241.33 174.837 5277.25 176.062 c 0
5013.86 175.875 m 0
 5049.79 174.649 5072.96 129.219 5072.96 95.9495 c 0
 5072.96 92.5368 5072.72 89.2521 5072.22 86.1562 c 0
 5061.22 17.8809 5018.81 -2.34668 4997.36 -12 c 1
 5018.08 -17.6807 5060.76 -28.1914 5077.09 -101.062 c 0
 5077.75 -103.974 5078.12 -108.029 5078.12 -112.895 c 0
 5078.12 -140.991 5065.55 -196.121 5020.89 -214.266 c 0
 5019.03 -215.022 5017.05 -215.372 5015.11 -215.372 c 0
 5009.12 -215.372 5003.59 -212.004 5003.59 -206.905 c 0
 5003.59 -205.348 5004.11 -203.63 5005.28 -201.797 c 0
 5017.95 -182.01 5029.89 -160.786 5029.89 -130.56 c 0
 5029.89 -122.045 5028.94 -112.816 5026.8 -102.703 c 0
 5016.4 -53.6914 4975.27 -24.9366 4913.66 -24.9366 c 0
 4913.47 -24.9366 4913.27 -24.9369 4913.08 -24.9375 c 0
 4825.61 -25.1953 4747.11 -25.1748 4660.23 -28.2188 c 0
 4582.34 -30.9473 4495 -45.5771 4430.88 -87.8438 c 1
 4396.64 -66.125 4375.96 -33.5586 4364.45 -14.0156 c 1
 4375.09 4.89648 4403.68 40.7969 4434.48 55.3125 c 1
 4493.19 12.463 4594.75 -3.81754 4654.01 -3.81754 c 0
 4656.23 -3.81754 4658.38 -3.79485 4660.47 -3.75 c 0
 4759.19 -1.64941 4831.25 0.666016 4912.89 3 c 0
 4963.11 4.43555 5010.06 30.5625 5026.33 93.8906 c 0
 5028.2 101.18 5029.04 107.534 5029.04 113.234 c 0
 5029.04 132.77 5019.14 144.609 5006.78 159.984 c 0
 5004.68 162.595 5003.67 165.355 5003.67 167.83 c 0
 5003.67 172.329 5007.02 175.885 5013.28 175.885 c 0
 5013.47 175.885 5013.66 175.882 5013.86 175.875 c 0
6609.34 170.391 m 0
 6610.95 170.408 6612.54 170.353 6614.17 170.25 c 0
 6665.05 167.045 6675.78 131.297 6675.78 108.967 c 0
 6675.77 107.391 l 0
 6675.26 85.21 6670.26 77.9688 6647.69 71.7188 c 0
 6644.56 70.8534 6641.21 70.4282 6637.78 70.4282 c 0
 6619.26 70.4282 6598.4 82.7891 6598.4 105.16 c 0
 6598.4 108.606 6598.89 112.29 6599.97 116.203 c 0
 6605.05 134.701 6613.68 137.25 6619.74 137.25 c 0
 6622.04 137.25 6623.98 136.881 6625.2 136.881 c 0
 6626.09 136.881 6626.6 137.078 6626.6 137.76 c 0
 6626.6 138.165 6626.42 138.741 6626.03 139.547 c 0
 6622.88 145.426 6618.44 147.601 6613.52 147.328 c 0
 6580.74 145.511 6559.93 121.065 6559.93 91.1736 c 0x001001203e0260
 6559.93 83.6605 6561.25 75.8033 6564.02 67.875 c 0
 6577.61 28.9473 6601.32 19.4707 6645.77 7.3125 c 0
 6659.49 3.55843 6675.6 2.08484 6692.54 2.08484 c 0
 6730.47 2.08484 6772.59 9.46999 6801.48 15.1875 c 0
 6843.29 23.459 6877.18 63.7764 6892.52 95.625 c 1
 6956.62 18.084 7038.77 5.4707 7132.38 0.234375 c 0
 7308.72 0.869116 8699.26 1.49616 9584.7 1.49616 c 0
 9878.99 1.49616 10117.5 1.42689 10237 1.26562 c 0
 10249.6 1.14453 10261.3 0.683594 10263.1 0.234375 c 0
 10267.9 -0.958984 10269.7 -6.11523 10267.7 -12.4219 c 0
 10265.1 -20.5635 10255.1 -25.25 10239.6 -25.6406 c 0
 10224.9 -25.6279 10208 -25.6217 10189 -25.6217 c 0
 9645.62 -25.6217 7391.19 -30.6719 7130.64 -31.7344 c 0
 7123.36 -31.5163 7116.19 -31.3964 7109.14 -31.3964 c 0
 7021.9 -31.3964 6952.5 -49.757 6896.78 -127.781 c 1
 6870.76 -92.4824 6838.92 -67.7461 6800.45 -50.3438 c 0
 6771.37 -37.1842 6722.57 -29.4767 6683.96 -29.4767 c 0
 6670.16 -29.4767 6657.66 -30.4606 6647.83 -32.5312 c 0
 6610.69 -40.3506 6598.33 -45.498 6576.81 -78 c 0
 6570.3 -87.8356 6567.35 -99.8764 6567.35 -112.101 c 0
 6567.35 -139.225 6581.89 -167.253 6604.33 -174.094 c 0
 6610.11 -175.855 6614.52 -176.597 6617.89 -176.597 c 0
 6626.47 -176.597 6628.2 -171.766 6628.2 -166.68 c 0x001001203e0254
 6628.2 -164.428 6627.86 -162.126 6627.62 -160.172 c 1
 6626.11 -160.529 6624.63 -160.698 6623.19 -160.698 c 0
 6610.31 -160.698 6600.77 -147.132 6600.77 -132.543 c 0
 6600.77 -132.375 l 0
 6600.84 -118.08 6616.88 -101.351 6635.9 -101.351 c 0
 6638.55 -101.351 6641.26 -101.675 6643.98 -102.375 c 0
 6667.84 -108.495 6679.55 -126.983 6679.55 -147.823 c 0
 6679.55 -154.053 6678.5 -160.492 6676.42 -166.875 c 0
 6671.4 -182.29 6655.15 -196.682 6625.55 -196.682 c 0
 6618.39 -196.682 6610.45 -195.841 6601.7 -193.969 c 0
 6566.63 -186.463 6545.11 -146.897 6545.11 -109.904 c 0x001001203e0258
 6545.11 -100.127 6546.61 -90.5287 6549.77 -81.75 c 0
 6564.85 -39.7559 6596.89 -24.0781 6626.12 -10.3594 c 1
 6595.63 -1.99609 6560.78 14.168 6542.5 63.8438 c 0
 6539.26 72.6364 6537.76 81.7135 6537.76 90.6884 c 0x001001203e0260
 6537.76 131.366 6568.67 169.941 6609.34 170.391 c 0
3681.81 170.203 m 0x000083203e0240
 3722.49 169.753 3753.4 131.147 3753.4 90.458 c 0x000083203e0240
 3753.4 81.4807 3751.89 72.402 3748.66 63.6094 c 0
 3730.37 13.9336 3695.52 -2.18359 3665.03 -10.5469 c 1
 3694.27 -24.2656 3726.26 -39.9434 3741.34 -81.9375 c 0
 3744.5 -90.7257 3746.01 -100.335 3746.01 -110.123 c 0
 3746.01 -147.107 3724.52 -186.653 3689.45 -194.156 c 0
 3680.71 -196.028 3672.77 -196.87 3665.61 -196.87 c 0
 3636.01 -196.87 3619.76 -182.478 3614.73 -167.062 c 0
 3612.66 -160.68 3611.61 -154.24 3611.61 -148.011 c 0x100095203e0240
 3611.61 -127.17 3623.31 -108.682 3647.17 -102.562 c 0
 3649.9 -101.863 3652.61 -101.538 3655.25 -101.538 c 0
 3674.28 -101.538 3690.32 -118.267 3690.39 -132.562 c 0
 3690.39 -132.731 l 0x140089203e0240
 3690.39 -147.32 3680.85 -160.886 3667.97 -160.886 c 0
 3666.53 -160.886 3665.05 -160.716 3663.53 -160.359 c 1
 3663.3 -162.314 3662.96 -164.616 3662.96 -166.867 c 0
 3662.96 -171.953 3664.69 -176.785 3673.27 -176.785 c 0
 3676.63 -176.785 3681.05 -176.042 3686.83 -174.281 c 0
 3709.27 -167.44 3723.81 -139.435 3723.81 -112.324 c 0x140095203e0240
 3723.81 -100.106 3720.86 -88.0699 3714.34 -78.2344 c 0
 3692.82 -45.7324 3680.46 -40.585 3643.33 -32.7656 c 0
 3633.47 -30.6899 3620.93 -29.703 3607.1 -29.703 c 0
 3568.5 -29.703 3519.76 -37.3831 3490.7 -50.5312 c 0
 3452.24 -67.9336 3420.4 -92.6699 3394.38 -127.969 c 1
 3338.66 -49.9445 3269.25 -31.5839 3182.02 -31.5839 c 0
 3174.97 -31.5839 3167.8 -31.7038 3160.52 -31.9219 c 0
 2899.96 -30.8594 645.537 -25.8092 102.144 -25.8092 c 0
 83.1442 -25.8092 66.236 -25.8154 51.5781 -25.8281 c 0
 36.0566 -25.4375 26.0869 -20.751 23.4531 -12.6094 c 0
 21.4141 -6.30273 23.2402 -1.19336 28 0 c 0
 29.793 0.449219 41.5586 0.910156 54.1094 1.03125 c 0
 173.681 1.19252 412.17 1.26178 706.453 1.26178 c 0
 1591.89 1.26178 2982.44 0.634741 3158.78 0 c 0
 3252.39 5.23633 3334.53 17.8965 3398.64 95.4375 c 1
 3413.97 63.5889 3447.87 23.2715 3489.67 15 c 0
 3518.6 9.27714 3560.76 1.86109 3598.72 1.86109 c 0
 3615.63 1.86109 3631.7 3.33191 3645.39 7.07812 c 0
 3689.83 19.2363 3713.55 28.7598 3727.14 67.6875 c 0
 3729.91 75.6158 3731.22 83.473 3731.22 90.9861 c 0
 3731.22 120.878 3710.42 145.324 3677.64 147.141 c 0
 3672.72 147.413 3668.22 145.191 3665.08 139.312 c 0
 3664.69 138.508 3664.51 137.934 3664.51 137.53 c 0
 3664.51 136.851 3665.02 136.653 3665.9 136.653 c 0x142103203e0240
 3667.13 136.653 3669.09 137.036 3671.43 137.036 c 0
 3677.5 137.036 3686.12 134.467 3691.19 116.016 c 0
 3692.26 112.103 3692.76 108.419 3692.76 104.972 c 0
 3692.76 82.6017 3671.9 70.2407 3653.38 70.2407 c 0
 3649.95 70.2407 3646.59 70.6659 3643.47 71.5312 c 0
 3620.9 77.7812 3615.9 85.0225 3615.39 107.203 c 0
 3615.37 108.786 l 0
 3615.37 131.116 3626.07 166.858 3676.94 170.062 c 0
 3678.57 170.165 3680.21 170.221 3681.81 170.203 c 0x000083203e0240
6011.08 125.812 m 0
 6017.05 125.547 6021.54 121.869 6021.54 118.228 c 0
 6021.54 116.291 6020.26 114.364 6017.27 112.969 c 0
 5996.03 103.086 5980.97 97.2956 5980.97 71.3075 c 0
 5981.03 68.4844 l 0x000001203e2240
 5982.8 23.0391 6042.09 5.34961 6083.69 -18.0938 c 1
 6036.26 -47.4404 5998.24 -50.2793 5989.7 -97.125 c 0
 5989.06 -100.652 5988.75 -103.972 5988.75 -107.105 c 0
 5988.75 -134.069 6011.38 -147.202 6036.53 -159.375 c 1
 6037.3 -159.375 6038.36 -160.503 6038.88 -161.859 c 0
 6040.05 -164.933 6035.75 -169.947 6032.88 -168.844 c 1
 6031.02 -169.12 6028.73 -169.275 6026.1 -169.275 c 0
 6001.81 -169.275 5948.8 -156.077 5948.8 -103.206 c 0x000001203e1240
 5948.88 -99.6562 l 0
 5950.83 -54.7822 5998.45 -32.9502 6030.67 -19.125 c 1
 5997.14 -4.85547 5946.7 19.873 5945.08 69 c 0x000001203e2240
 5945.04 71.1675 l 0
 5945.04 102.837 5968.4 122.731 6009.2 125.766 c 0
 6009.84 125.814 6010.47 125.839 6011.08 125.812 c 0
4280.08 125.578 m 0
 4280.69 125.604 4281.32 125.627 4281.95 125.578 c 0
 4322.75 122.543 4346.11 102.649 4346.11 70.98 c 0
 4346.08 68.8125 l 0x080001223e0240
 4344.46 19.6855 4294.02 -5.04297 4260.48 -19.3125 c 1
 4292.7 -33.1377 4340.33 -54.9697 4342.28 -99.8438 c 0
 4342.33 -101.047 4342.36 -102.23 4342.36 -103.394 c 0
 4342.36 -156.281 4289.31 -169.508 4265.04 -169.508 c 0
 4262.42 -169.508 4260.13 -169.354 4258.28 -169.078 c 1
 4255.41 -170.182 4251.05 -165.12 4252.23 -162.047 c 0
 4252.75 -160.69 4253.85 -159.562 4254.62 -159.562 c 1
 4279.78 -147.389 4302.4 -134.294 4302.4 -107.338 c 0x080001243e0240
 4302.4 -104.206 4302.1 -100.886 4301.45 -97.3594 c 0
 4292.92 -50.5137 4254.9 -47.6748 4207.47 -18.3281 c 1
 4249.07 5.11523 4308.35 22.8516 4310.12 68.2969 c 0x080001223e0240
 4310.18 71.1198 l 0
 4310.18 97.1049 4295.13 102.852 4273.89 112.734 c 0
 4270.89 114.13 4269.62 116.057 4269.62 117.994 c 0
 4269.62 121.634 4274.11 125.313 4280.08 125.578 c 0
6454.8 27.8906 m 0
 6485.64 27.6493 6500.93 4.13537 6500.93 -17.9878 c 0
 6500.92 -18.75 l 0
 6500.57 -40.572 6483.94 -63.3761 6454.87 -63.3761 c 0
 6454.75 -63.3761 6454.63 -63.3758 6454.52 -63.375 c 0
 6424.79 -63.1846 6407.16 -39.9375 6406.75 -15.6562 c 0
 6406.74 -14.8096 l 0
 6406.74 9.33558 6424.16 27.8929 6454.22 27.8929 c 0
 6454.41 27.8929 6454.6 27.8921 6454.8 27.8906 c 0
3836.36 27.7031 m 0x008001203e0240
 3836.55 27.7046 3836.75 27.7054 3836.94 27.7054 c 0
 3866.99 27.7054 3884.37 9.14908 3884.37 -14.9952 c 0
 3884.36 -15.8438 l 0
 3883.95 -40.125 3866.36 -63.3721 3836.64 -63.5625 c 0
 3836.52 -63.5633 3836.4 -63.5636 3836.28 -63.5636 c 0
 3807.21 -63.5636 3790.53 -40.8062 3790.19 -18.9844 c 0
 3790.18 -18.2244 l 0
 3790.18 3.90045 3805.52 27.4618 3836.36 27.7031 c 0x008001203e0240
5110.4 -20.0859 m 0
 5110.66 1.38828 5128.42 12.3295 5146.41 12.3295 c 0
 5146.52 12.3295 5146.64 12.329 5146.75 12.3281 c 0
 5164.44 12.1907 5181.7 0.408054 5181.7 -19.1342 c 0
 5181.67 -20.5059 l 0
 5180.86 -40.5036 5167.28 -54.2582 5147.54 -54.2582 c 0
 5147.36 -54.2578 l 0x004001203e0240
 5127.66 -54.1735 5110.4 -41.8846 5110.4 -20.5706 c 0
 5110.4 -20.0859 l 0
6155.41 -46.9219 m 0
 6157.2 -46.8926 6159.03 -46.916 6160.89 -46.9219 c 0
 6218.55 -47.1221 6248.57 -100.14 6248.57 -146.286 c 0
 6248.57 -148.75 6248.48 -151.194 6248.31 -153.609 c 0
 6245.01 -200.055 6211.52 -253.729 6131.27 -263.625 c 0
 6104.52 -266.924 6078.6 -268.448 6053.41 -268.448 c 0x800001203e0a40
 5842.18 -268.448 5682.25 -161.245 5514.2 -93.8906 c 0
 5502.34 -89.1358 5489.47 -87.0047 5476.41 -87.0047 c 0
 5425.96 -87.0047 5372.55 -118.761 5362.52 -153.938 c 0
 5360.75 -160.129 5359.92 -166.363 5359.92 -172.496 c 0
 5359.92 -200.221 5376.91 -225.907 5401.28 -236.484 c 0
 5406.76 -238.863 5411.48 -240.044 5415.54 -240.044 c 0
 5419.19 -240.044 5422.32 -239.088 5425 -237.188 c 0
 5432.69 -231.738 5436.52 -226.779 5436.52 -222.902 c 0x400001203e8a40
 5436.52 -218.469 5431.51 -215.451 5421.53 -214.734 c 0
 5407.98 -213.761 5403.38 -203.414 5403.38 -191.724 c 0
 5403.38 -187.49 5403.99 -183.08 5404.98 -178.875 c 0
 5408.83 -162.677 5422.2 -156.497 5439.55 -156.497 c 0
 5442.42 -156.497 5445.38 -156.665 5448.44 -156.984 c 0
 5472.69 -159.519 5481.65 -174.548 5482.14 -188.906 c 0
 5482.19 -191.648 l 0
 5482.19 -221.271 5466.11 -261.14 5422.97 -261.14 c 0x600001203f0240
 5422.13 -261.14 5421.27 -261.125 5420.41 -261.094 c 0
 5377.04 -259.502 5333.66 -229.382 5333.66 -175.633 c 0
 5333.66 -169.916 5334.15 -163.933 5335.19 -157.688 c 0
 5345.81 -93.4824 5399.8 -60.7471 5457.39 -60.1406 c 0
 5458.21 -60.132 5459.02 -60.1278 5459.84 -60.1278 c 0
 5624 -60.1278 5789.68 -233.199 6076.64 -233.199 c 0
 6084.7 -233.199 6092.87 -233.062 6101.12 -232.781 c 0
 6137.58 -231.541 6180.41 -212.342 6201.25 -180.188 c 0
 6211.15 -164.908 6215.15 -151.317 6215.15 -138.632 c 0
 6215.15 -124.622 6210.28 -111.716 6203.12 -98.8594 c 0
 6192.91 -80.5001 6170.06 -67.7006 6148.58 -67.7006 c 0
 6140.63 -67.7006 6132.88 -69.4494 6126.02 -73.3125 c 1
 6122.66 -77.1071 6120.92 -80.6689 6120.92 -83.2564 c 0x800001203f0a40
 6120.92 -85.0185 6121.73 -86.3288 6123.39 -86.9531 c 1
 6129.5 -94.584 6139.09 -88.8594 6146.17 -94.6406 c 0
 6152.36 -101.078 6155.03 -109.246 6155.03 -117.553 c 0x800001203e0640
 6155.03 -137.076 6140.27 -157.362 6121.66 -157.734 c 0
 6121.02 -157.747 6120.39 -157.754 6119.75 -157.754 c 0
 6094.95 -157.754 6071.32 -147.85 6071.32 -112.508 c 0x800001203e0a40
 6071.32 -110.539 6071.4 -108.49 6071.55 -106.359 c 0
 6074.38 -66.3184 6099.71 -47.8477 6155.41 -46.9219 c 0
4130.27 -47.1094 m 0
 4130.6 -47.1082 4130.93 -47.1076 4131.26 -47.1076 c 0
 4190.08 -47.1076 4216.7 -65.4457 4219.61 -106.547 c 0
 4219.76 -108.677 4219.83 -110.726 4219.83 -112.696 c 0
 4219.83 -148.046 4196.2 -157.988 4171.4 -157.988 c 0
 4170.77 -157.988 4170.13 -157.981 4169.5 -157.969 c 0
 4150.88 -157.596 4136.09 -137.268 4136.09 -117.724 c 0x01000130be0240
 4136.09 -109.42 4138.76 -101.258 4144.94 -94.8281 c 0
 4152.02 -89.0469 4161.65 -94.7715 4167.77 -87.1406 c 1
 4169.43 -86.5164 4170.24 -85.2062 4170.24 -83.4443 c 0
 4170.24 -80.8567 4168.49 -77.2948 4165.14 -73.5 c 1
 4158.28 -69.6369 4150.52 -67.8881 4142.58 -67.8881 c 0x010001283e0240
 4121.09 -67.8881 4098.25 -80.6876 4088.03 -99.0469 c 0
 4080.88 -111.904 4076.01 -124.809 4076.01 -138.819 c 0
 4076.01 -151.505 4080 -165.096 4089.91 -180.375 c 0
 4110.75 -212.529 4153.57 -231.729 4190.03 -232.969 c 0
 4198.29 -233.25 4206.45 -233.387 4214.52 -233.387 c 0
 4501.47 -233.387 4667.11 -60.3153 4831.27 -60.3153 c 0
 4832.09 -60.3153 4832.9 -60.3195 4833.72 -60.3281 c 0
 4891.31 -60.9346 4945.34 -93.7168 4955.97 -157.922 c 0
 4957 -164.167 4957.49 -170.151 4957.49 -175.867 c 0
 4957.49 -229.616 4914.12 -259.737 4870.75 -261.328 c 0
 4869.88 -261.359 4869.03 -261.374 4868.18 -261.374 c 0
 4825.04 -261.374 4808.92 -221.499 4808.92 -191.875 c 0
 4808.97 -189.141 l 0
 4809.46 -174.782 4818.42 -159.706 4842.67 -157.172 c 0
 4845.71 -156.854 4848.67 -156.687 4851.52 -156.687 c 0
 4868.9 -156.687 4882.33 -162.899 4886.17 -179.109 c 0
 4887.17 -183.314 4887.77 -187.721 4887.77 -191.95 c 0x020001287e0240
 4887.77 -203.627 4883.18 -213.948 4869.62 -214.922 c 0
 4859.63 -215.64 4854.61 -218.677 4854.61 -223.132 c 0
 4854.61 -227.017 4858.43 -231.98 4866.11 -237.422 c 0
 4868.78 -239.312 4871.88 -240.257 4875.51 -240.257 c 0
 4879.58 -240.257 4884.32 -239.063 4889.83 -236.672 c 0
 4914.21 -226.09 4931.23 -200.423 4931.23 -172.699 c 0
 4931.23 -166.577 4930.4 -160.354 4928.64 -154.172 c 0
 4918.6 -118.989 4865.17 -87.1974 4814.72 -87.1974 c 0x02000120be0240
 4801.66 -87.1974 4788.81 -89.3269 4776.95 -94.0781 c 0
 4608.91 -161.433 4448.98 -268.635 4237.75 -268.635 c 0
 4212.56 -268.635 4186.64 -267.111 4159.89 -263.812 c 0
 4079.63 -253.916 4046.14 -200.289 4042.84 -153.844 c 0
 4042.67 -151.428 4042.59 -148.984 4042.59 -146.52 c 0
 4042.59 -100.37 4072.61 -47.3096 4130.27 -47.1094 c 0
EndSplineSet
Validated: 1
EndChar

StartChar: Sep5
Encoding: 83 83 13
Width: 8148
VWidth: 0
Flags: W
HStem: -173.308 41.7162<3070.44 3480.9 4668.03 5072.63> -119.227 60.9773<2708.69 2770.16 5364.34 5437.5> -104.168 30.5192<1959.26 2057.92 6088.21 6185.17> -82.9861 38.6182<3292.71 3571.55 4574.58 4852.35> -56.4375 66.3134<2013.22 2057.33 6088.79 6132.51> -22.125 45.6875<2.75 77.5688> 25.3726 55.65<3622.1 3686.26 4458.6 4524.01> 49.6434 43.5672<2787.29 2917.16 2917.16 2979.69 2979.69 3030.08 5112.09 5225.65 5225.65 5229.31 5229.31 5362.18> 101.876 34.2839<2072.2 2456.15 5690.14 6074.33>
VStem: 2011.31 95.4382<-52.8362 0.582836> 2660.44 45.2942<-52.0679 -8.37889> 3565.39 56.6479<-21.192 23.562> 3702.11 31.3704<-144.593 -99.1318> 3836.01 83.1599<-142.385 -112.726> 3836.01 41.1011<-113.502 -62.6956> 4227.02 83.0972<-141.348 -111.715> 4269.07 41.0396<-112.493 -61.6684> 4406.5 37.5176<-158.869 -158.502 -149.892 -93.2834> 4524.09 56.6421<-19.8563 24.5638> 5440.44 45.2754<-51.0544 -7.36214> 6039.37 95.438<-51.8362 1.58298>
LayerCount: 2
Fore
SplineSet
5887.94 137.188 m 0x91fa78
 5888.74 137.189 5889.55 137.19 5890.35 137.19 c 0
 6044.6 137.19 6188.06 104.759 6247.69 14.9375 c 1
 6588.43 14.5299 7362.12 13.8644 7829.36 13.8644 c 0
 7915.16 13.8644 7990.63 13.8869 8051.19 13.9375 c 2
 8143.44 20.5625 l 1
 8149.67 15.8075 8152.7 12.0943 8152.7 8.20382 c 0
 8152.7 4.87451 8150.48 1.4154 8146.12 -2.9375 c 0
 8134.76 -15.9863 8074.9 -13.1875 8039.81 -19.0625 c 1
 7958.26 -19.5577 7588.78 -19.6117 7205.12 -19.6117 c 0
 7098.13 -19.6117 6990.03 -19.6075 6886.77 -19.6075 c 0
 6580.51 -19.6075 6316.8 -19.6445 6250.56 -19.9375 c 1
 6241.69 -58.5349 6190.15 -103.168 6126.11 -103.168 c 0
 6110.74 -103.168 6094.65 -100.596 6078.25 -94.75 c 0
 6055.49 -86.6329 6039.37 -65.9022 6039.37 -41.9477 c 0
 6039.38 -41.6875 l 0
 6039.57 -0.908203 6064.97 8.05078 6095.94 9.75 c 0
 6097.46 9.83357 6098.94 9.87593 6100.39 9.87593 c 0
 6122.25 9.87593 6134.81 0.161905 6134.81 -23.2415 c 0
 6134.81 -23.375 l 0
 6134.77 -46.2246 6112.04 -55.3203 6091.81 -56.4375 c 0
 6088.27 -56.4375 6087.26 -57.2441 6088.12 -59.5 c 0
 6089.85 -63.9824 6103.6 -71.4316 6115.56 -72.375 c 0
 6117.88 -72.5575 6120.25 -72.6486 6122.68 -72.6486 c 0
 6149.53 -72.6486 6182.21 -61.4878 6197.62 -39.6875 c 0
 6203.77 -31.0037 6206.38 -22.4931 6206.38 -14.284 c 0
 6206.38 1.08482 6197.21 15.3972 6184.81 27.8125 c 0
 6123.92 80.5685 6010.58 102.875 5885.6 102.875 c 0
 5738.17 102.875 5574.55 71.837 5461.69 23.125 c 1
 5478.16 3.97083 5485.71 -12.3706 5485.71 -30.4066 c 0
 5485.71 -43.113 5481.96 -56.6605 5474.94 -72.625 c 1
 5456.37 -101.905 5431.3 -118.227 5405.67 -118.227 c 0
 5395.58 -118.227 5385.4 -115.699 5375.5 -110.438 c 0
 5366.55 -105.682 5362.51 -97.7688 5362.51 -89.4789 c 0
 5362.51 -74.5166 5375.66 -58.3258 5396.81 -57.25 c 0
 5418.64 -56.1406 5433.83 -53.2656 5437.69 -47.375 c 0
 5439.36 -43.2262 5440.44 -38.0389 5440.44 -32.5779 c 0
 5440.44 -23.7012 5437.59 -14.1013 5429.81 -7.0625 c 1
 5399.48 -41.4414 5316.27 -79.2246 5277.44 -96.1875 c 0
 5160.5 -147.273 5007.27 -172.302 4856.86 -172.302 c 0
 4824.1 -172.302 4791.47 -171.115 4759.38 -168.75 c 0
 4623.01 -158.625 4513.64 -121.832 4438.12 -91 c 1
 4442.24 -100.447 4444.02 -110.79 4444.02 -120.21 c 0
 4444.02 -131.186 4441.61 -140.908 4437.69 -146.5 c 0
 4430.63 -156.563 4418.36 -161.531 4411.5 -161.531 c 0
 4408.5 -161.531 4406.54 -160.58 4406.5 -158.688 c 0
 4406.5 -158.502 l 0
 4406.5 -152.109 4412.65 -143.738 4412.65 -132.624 c 0
 4412.65 -125.443 4410.08 -117.116 4401.62 -107.438 c 0
 4346.02 -57.4121 4242.1 -4.82422 4189.31 5.5625 c 1
 4233.84 -22.0868 4310.11 -45.696 4310.11 -92.7913 c 0x89faf8
 4310.11 -95.0754 4309.93 -97.4148 4309.56 -99.8125 c 0
 4304.66 -131.469 4284.57 -152.589 4256.95 -152.589 c 0
 4250.03 -152.589 4242.63 -151.261 4234.88 -148.438 c 0
 4229.55 -146.499 4227.02 -142.144 4227.02 -137.068 c 0x89f978
 4227.02 -131.408 4230.17 -124.851 4236.12 -119.75 c 0
 4248.5 -109.156 4269.07 -105.881 4269.07 -89.4693 c 0
 4269.07 -88.0963 4268.93 -86.6313 4268.62 -85.0625 c 0
 4262.85 -55.3438 4172.46 -25.5078 4146.81 -24.25 c 1
 4152.78 -35.7812 4196.68 -64.8086 4207.31 -76.6875 c 1
 4170.94 -114.143 4123.75 -138.449 4075.07 -152.746 c 1
 4028.36 -139.873 3974.09 -113.918 3938.88 -77.75 c 1
 3949.51 -65.8711 3993.35 -36.7812 3999.31 -25.25 c 1
 3973.66 -26.5078 3883.34 -56.4062 3877.56 -86.125 c 0
 3877.26 -87.6938 3877.11 -89.1584 3877.11 -90.5307 c 0x89faf8
 3877.11 -106.935 3897.69 -110.156 3910.06 -120.75 c 0
 3916.02 -125.851 3919.17 -132.425 3919.17 -138.103 c 0x89fc78
 3919.17 -143.192 3916.64 -147.561 3911.31 -149.5 c 0
 3903.57 -152.319 3896.18 -153.645 3889.26 -153.645 c 0
 3861.61 -153.645 3841.46 -132.481 3836.56 -100.812 c 0
 3836.19 -98.4164 3836.01 -96.0786 3836.01 -93.796 c 0
 3836.01 -46.6976 3912.34 -23.0877 3956.88 4.5625 c 1
 3904.08 -5.82422 3800.11 -58.4121 3744.5 -108.438 c 0
 3736.05 -118.116 3733.48 -126.452 3733.48 -133.646 c 0
 3733.48 -144.777 3739.63 -153.171 3739.63 -159.565 c 0
 3739.62 -159.75 l 0
 3739.59 -161.634 3737.64 -162.58 3734.66 -162.58 c 0
 3727.81 -162.58 3715.51 -157.582 3708.44 -147.5 c 0
 3704.52 -141.908 3702.11 -132.186 3702.11 -121.21 c 0
 3702.11 -111.79 3703.88 -101.447 3708 -92 c 1
 3632.49 -122.832 3523.11 -159.625 3386.75 -169.75 c 0
 3354.61 -172.118 3321.94 -173.308 3289.13 -173.308 c 0
 3138.76 -173.308 2985.59 -148.32 2868.69 -97.25 c 0
 2829.86 -80.2871 2746.65 -42.4414 2716.31 -8.0625 c 1
 2708.56 -15.0787 2705.73 -24.6397 2705.73 -33.4925 c 0
 2705.73 -38.9848 2706.82 -44.2046 2708.5 -48.375 c 0
 2712.36 -54.2656 2727.48 -57.1406 2749.31 -58.25 c 0
 2770.46 -59.3258 2783.61 -75.5166 2783.61 -90.4789 c 0
 2783.61 -98.7688 2779.58 -106.682 2770.62 -111.438 c 0
 2760.72 -116.699 2750.55 -119.227 2740.46 -119.227 c 0xc9fa78
 2714.82 -119.227 2689.76 -102.905 2671.19 -73.625 c 1
 2664.17 -57.6872 2660.44 -44.1583 2660.44 -31.4702 c 0
 2660.44 -13.4091 2668.01 2.94829 2684.5 22.125 c 1
 2571.64 70.8378 2408 101.876 2260.56 101.876 c 0
 2135.56 101.876 2022.21 79.5688 1961.31 26.8125 c 0
 1948.93 14.4097 1939.79 0.1137 1939.79 -15.2375 c 0
 1939.79 -23.461 1942.41 -31.9872 1948.56 -40.6875 c 0
 1963.98 -62.4878 1996.61 -73.6486 2023.45 -73.6486 c 0
 2025.87 -73.6486 2028.25 -73.5575 2030.56 -73.375 c 0
 2042.53 -72.4316 2056.28 -64.9824 2058 -60.5 c 0
 2058.87 -58.2441 2057.91 -57.4375 2054.38 -57.4375 c 0
 2034.15 -56.3203 2011.36 -47.2246 2011.31 -24.375 c 0
 2011.31 -24.2421 l 0
 2011.31 -0.838257 2023.88 8.87593 2045.74 8.87593 c 0
 2047.18 8.87593 2048.66 8.83357 2050.19 8.75 c 0
 2081.16 7.05078 2106.55 -1.9082 2106.75 -42.6875 c 0
 2106.75 -42.9477 l 0
 2106.75 -66.9022 2090.64 -87.6329 2067.88 -95.75 c 0
 2051.48 -101.596 2035.39 -104.168 2020.01 -104.168 c 0
 1955.98 -104.168 1904.43 -59.5349 1895.56 -20.9375 c 1
 1648.29 -21.9516 1346.7 -22.1604 1032.91 -22.1604 c 0
 813.222 -22.1604 587.549 -22.0581 370.334 -22.0581 c 0
 280.542 -22.0581 192.194 -22.0756 106.312 -22.125 c 0
 65.7012 -21.7754 14.1328 -11.668 0 0 c 0
 -4.33889 4.33889 -6.54969 7.80294 -6.54969 11.1366 c 0
 -6.54969 15.0556 -3.49457 18.7944 2.75 23.5625 c 1
 94.9375 14.9375 l 2
 474.312 13.8487 858.436 12.9839 1243.2 12.9839 c 0
 1461.66 12.9839 1680.32 13.2627 1898.44 13.9375 c 1
 1958.06 103.745 2101.52 136.16 2255.74 136.16 c 0
 2432.3 136.16 2622.94 93.6766 2718 46.1875 c 1
 2753.38 78.127 2845.87 92.1995 2915.75 92.1995 c 0
 2941.43 92.1995 2964.06 90.2994 2979.69 86.6875 c 0
 3134.8 50.8281 3276.53 -38.5781 3389.88 -44.75 c 0
 3397.44 -45.1622 3405.86 -45.3679 3414.86 -45.3679 c 0
 3464.94 -45.3679 3533.07 -39.0001 3573.5 -26.375 c 1
 3569.6 -13.8629 3565.39 0.566585 3565.39 15.1779 c 0
 3565.39 36.4572 3574.32 58.1223 3606.12 74.8125 c 0
 3617.25 78.9969 3629.08 81.0226 3640.85 81.0226 c 0
 3682.71 81.0226 3723.77 55.3723 3729.56 10.0625 c 0
 3729.57 8.42251 l 0
 3729.57 -11.5189 3726.83 -7.68522 3714.38 -9.4375 c 0
 3713.31 -9.58737 3712.27 -9.65906 3711.25 -9.65906 c 0
 3688.72 -9.65906 3676.88 25.3726 3653.06 25.3726 c 0xa6fa78
 3651.92 25.3726 3650.76 25.2926 3649.56 25.125 c 0
 3637.49 23.4331 3622.04 16.5488 3622.04 6.34666 c 0
 3622.04 3.91162 3622.92 1.28757 3624.94 -1.5 c 0
 3645.71 -30.2094 3673.96 -41.396 3705.31 -41.396 c 0
 3783.55 -41.396 3881.1 28.2647 3929.88 69.125 c 1
 3991.05 38.7274 4021.92 20.2303 4072.5 20.2303 c 0
 4072.74 20.2305 l 0
 4127.4 20.2969 4150.94 35.4863 4216.25 70.1875 c 1
 4265.03 29.3272 4362.57 -40.3335 4440.81 -40.3335 c 0
 4472.16 -40.3335 4500.42 -29.1469 4521.19 -0.4375 c 0
 4523.21 2.35602 4524.09 4.98298 4524.09 7.41864 c 0
 4524.09 17.5965 4508.69 24.434 4496.62 26.125 c 0
 4495.43 26.2928 4494.26 26.3729 4493.12 26.3729 c 0
 4469.3 26.3729 4457.41 -8.59688 4434.88 -8.59688 c 0
 4433.86 -8.59688 4432.82 -8.52509 4431.75 -8.375 c 0
 4419.3 -6.62272 4416.56 -10.4564 4416.56 9.48501 c 0
 4416.56 11.125 l 0
 4422.35 56.42 4463.39 82.0303 4505.24 82.0303 c 0
 4517.02 82.0303 4528.86 80.0017 4540 75.8125 c 0
 4571.81 59.1223 4580.73 37.4572 4580.73 16.1779 c 0
 4580.73 1.56658 4576.52 -12.8629 4572.62 -25.375 c 1
 4613.06 -38.0001 4681.23 -44.3679 4731.32 -44.3679 c 0
 4740.32 -44.3679 4748.74 -44.1622 4756.31 -43.75 c 0
 4869.66 -37.5781 5011.32 51.8281 5166.44 87.6875 c 0
 5182.09 91.3057 5204.77 93.2106 5230.51 93.2106 c 0
 5300.4 93.2106 5392.83 79.1691 5428.19 47.25 c 1
 5522.8 94.5156 5712.09 136.803 5887.94 137.188 c 0x91fa78
5226 49.625 m 0
 5218.46 49.5371 5211.35 49.1465 5204.81 48.375 c 0
 5039.63 28.8887 4951.32 -60.6855 4751.56 -82.1875 c 0
 4746.47 -82.7385 4740.62 -82.9861 4734.18 -82.9861 c 0x91f878
 4677.86 -82.9861 4576.93 -64.0241 4550 -63.5 c 0
 4549.38 -63.4879 4548.76 -63.482 4548.14 -63.482 c 0
 4528.6 -63.482 4509.81 -69.3707 4509.81 -73.4718 c 0
 4509.81 -74.2237 4510.44 -74.9156 4511.81 -75.5 c 0
 4623.35 -110.633 4754.75 -130.562 4884.28 -130.562 c 0
 5021.87 -130.562 5157.35 -108.075 5264.69 -57.4375 c 0
 5305.9 -37.9941 5357.14 -15.6875 5389.81 18.4375 c 1
 5352.78 34.8313 5281.65 49.6434 5229.17 49.6434 c 0
 5228.11 49.6434 5227.05 49.6373 5226 49.625 c 0
2914.38 48.625 m 0
 2862.16 48.1562 2792.75 33.5039 2756.31 17.375 c 1
 2788.98 -16.75 2840.29 -39.0566 2881.5 -58.5 c 0
 2988.79 -109.119 3124.2 -131.592 3261.73 -131.592 c 0
 3391.29 -131.592 3522.73 -111.646 3634.31 -76.5 c 0
 3635.69 -75.9156 3636.32 -75.2238 3636.32 -74.4719 c 0
 3636.32 -70.3708 3617.53 -64.482 3597.98 -64.482 c 0
 3597.37 -64.482 3596.75 -64.4879 3596.12 -64.5 c 0
 3569.19 -65.0241 3468.26 -83.9861 3411.94 -83.9861 c 0
 3405.51 -83.9861 3399.66 -83.7385 3394.56 -83.1875 c 0
 3194.8 -61.6855 3106.49 27.8262 2941.31 47.3125 c 0
 2933.82 48.1961 2925.54 48.6356 2916.75 48.6356 c 0
 2915.96 48.6356 2915.17 48.6321 2914.38 48.625 c 0
4073.44 -42.5625 m 1
 4051.45 -46.9258 4012.03 -65.4863 3995.12 -77.625 c 1
 4012.25 -88.9258 4043.87 -105.086 4072.06 -114.438 c 1
 4102.74 -104.527 4133.13 -90.5762 4151 -76.625 c 1
 4129.61 -62.6191 4098.94 -48.4922 4073.44 -42.5625 c 1
EndSplineSet
Validated: 1
EndChar

StartChar: Cross
Encoding: 84 84 14
Width: 848
VWidth: 0
Flags: W
HStem: 63.043 42.0742<275.255 320.478 321.584 325.931 522.816 528.138 529.248 574.469> 362.405 38.7764<248.646 401.135 447.49 599.979> 658.47 42.0732<274.156 319.379 320.484 324.83 521.716 527.04 528.148 573.37>
VStem: 401.166 45.1934<217.458 361.817 401.77 549.51>
LayerCount: 2
Fore
SplineSet
423.614 767.502 m 0
 427.064 767.518 430.586 765.44 435.956 761.506 c 0
 446.693 753.638 456.802 725.604 458.891 710.638 c 0
 460.981 695.671 464.585 685.437 468.186 684.104 c 1
 489.604 685.89 507.183 700.559 527.04 700.559 c 0
 527.407 700.559 527.777 700.554 528.148 700.543 c 0
 548.461 699.979 576.597 695.116 581.015 674.261 c 0
 582.483 667.333 578.038 660.113 573.37 658.47 c 0
 553.018 651.309 540.554 652.738 518.703 634.335 c 0
 496.854 615.933 476.44 579.385 465.887 543.293 c 0
 456.012 509.518 446.359 459.67 446.359 421.384 c 0
 446.359 418.756 446.404 416.183 446.498 413.674 c 0
 446.892 404.801 449.514 402.546 460.239 401.73 c 0
 552.228 403.963 605.328 408.485 672.107 472.037 c 0
 698.759 497.4 698.717 531.552 713.834 531.552 c 0
 715.403 531.552 717.135 531.185 719.078 530.399 c 0
 738.91 522.398 745.435 500.973 745.435 479.483 c 0
 745.435 466.477 743.044 453.446 739.766 443.354 c 0
 737.25 435.616 735.423 429.911 735.423 426.088 c 0
 735.423 422.508 737.025 420.578 741.166 420.17 c 0
 762.298 416.436 815.623 400.68 815.623 379.515 c 0
 815.619 379.146 l 0
 814.99 357.793 757.011 344.869 742.264 343.417 c 0
 738.124 343.009 736.522 341.079 736.522 337.5 c 0
 736.522 333.676 738.35 327.971 740.864 320.232 c 0
 744.144 310.141 746.534 297.11 746.534 284.102 c 0
 746.534 262.612 740.01 241.188 720.178 233.188 c 0
 718.236 232.402 716.503 232.035 714.935 232.035 c 0
 699.816 232.035 699.858 266.187 673.208 291.55 c 0
 606.428 355.102 553.327 359.624 461.341 361.856 c 0
 450.613 361.041 447.991 358.786 447.599 349.913 c 0
 447.504 347.404 447.459 344.831 447.459 342.203 c 0
 447.459 303.916 457.11 254.069 466.985 220.295 c 0
 477.538 184.202 497.953 147.654 519.804 129.252 c 0
 541.652 110.849 554.115 112.278 574.469 105.117 c 0
 579.138 103.474 583.582 96.2529 582.114 89.3262 c 0
 577.695 68.4707 549.561 63.6064 529.248 63.043 c 0
 528.876 63.0332 528.507 63.0283 528.138 63.0283 c 0
 508.281 63.0283 490.704 77.6953 469.285 79.4824 c 1
 465.687 78.1504 462.08 67.915 459.99 52.9482 c 0
 457.901 37.9824 447.793 9.94922 437.054 2.08105 c 0
 431.706 -1.83789 428.224 -3.90918 424.786 -3.90918 c 0
 421.322 -3.90918 417.904 -1.80566 412.67 2.62988 c 0
 402.242 11.4668 391.823 38.5332 389.734 53.499 c 0
 387.644 68.4648 384.04 78.7002 380.439 80.0322 c 1
 359.02 78.2451 341.441 63.5762 321.584 63.5762 c 0
 321.215 63.5762 320.848 63.5811 320.478 63.5928 c 0
 300.164 64.1562 272.028 69.0205 267.61 89.876 c 0
 266.142 96.8037 270.587 104.023 275.255 105.666 c 0
 295.607 112.827 308.071 111.398 329.923 129.801 c 0
 351.771 148.204 372.186 184.752 382.738 220.843 c 0
 392.613 254.617 402.266 304.467 402.266 342.755 c 0
 402.266 345.381 402.221 347.954 402.127 350.463 c 0
 401.733 359.335 399.111 361.591 388.386 362.405 c 0
 296.397 360.173 243.297 355.649 176.518 292.1 c 0
 149.866 266.736 149.908 232.585 134.79 232.585 c 0
 133.222 232.585 131.49 232.952 129.548 233.736 c 0
 109.716 241.737 103.19 263.164 103.19 284.653 c 0
 103.19 297.66 105.581 310.69 108.859 320.78 c 0
 111.375 328.52 113.202 334.225 113.202 338.049 c 0
 113.202 341.629 111.601 343.561 107.46 343.967 c 0
 95.2061 345.174 53.9277 357.581 38.7041 370.5 c 0
 34.6758 373.919 32.7705 377.96 32.7705 382.044 c 0
 32.7705 385.401 34.0557 388.787 36.5049 391.887 c 0
 48.7197 407.35 93.7646 418.379 106.361 419.619 c 0
 110.501 420.026 112.103 421.958 112.103 425.537 c 0
 112.103 429.361 110.275 435.066 107.761 442.805 c 0
 104.481 452.896 102.09 465.927 102.09 478.936 c 0
 102.09 500.423 108.616 521.85 128.447 529.851 c 0
 130.39 530.635 132.121 531.002 133.69 531.002 c 0
 148.809 531.002 148.767 496.851 175.418 471.487 c 0
 242.197 407.938 295.298 403.414 387.286 401.182 c 0
 398.012 401.996 400.634 404.252 401.026 413.124 c 0
 401.121 415.633 401.166 418.206 401.166 420.834 c 0
 401.166 459.121 391.515 508.97 381.641 542.742 c 0
 371.087 578.833 350.673 615.383 328.821 633.786 c 0
 306.973 652.188 294.51 650.76 274.156 657.921 c 0
 269.487 659.563 265.044 666.783 266.511 673.711 c 0
 270.931 694.566 299.064 699.43 319.379 699.994 c 0
 319.748 700.006 320.117 700.011 320.484 700.011 c 0
 340.343 700.011 357.92 685.342 379.342 683.555 c 1
 382.939 684.887 386.546 695.122 388.635 710.088 c 0
 390.724 725.054 401.144 752.119 411.571 760.957 c 0
 416.785 765.375 420.162 767.485 423.614 767.502 c 0
EndSplineSet
Validated: 33
EndChar

StartChar: StarSix
Encoding: 42 42 15
Width: 484
VWidth: 0
Flags: W
HStem: 291 75<108 144.031 397 428.81> 456 77<357.879 400>
VStem: 214 74<209.094 320.867 497.484 579.219 579.219 592> 241 19<272.256 396 426 549.576>
LayerCount: 2
Fore
SplineSet
241 389 m 5xd0
 241 396 l 5
 214.333 379.333 197 367.333 189 360 c 4
 181.667 354 167.667 339 147 315 c 4
 133 299 119 291 105 291 c 5
 83 294.333 71 306 69 326 c 4
 69 345.333 82 358.667 108 366 c 4
 114.667 368 122.333 369.667 131 371 c 4
 166.333 377.667 197 388.667 223 404 c 4
 226.333 406 230 408.333 234 411 c 5
 223 418 l 6
 204.333 430.667 175.667 440.667 137 448 c 4
 93 456 70.333 471.667 69 495 c 4
 69 512.333 76.667 523.667 92 529 c 4
 96 530.333 99.667 531 103 531 c 4
 117 531 133 520.333 151 499 c 4
 179 468.333 207.667 444.667 237 428 c 6
 241 426 l 5
 241 439 l 6
 241 466.333 236 496.667 226 530 c 4
 219.333 553.333 216 570.333 216 581 c 4
 216 598.333 224 609.333 240 614 c 4
 243.333 615.333 247 616 251 616 c 4
 267.667 616 279 608 285 592 c 4
 286.333 588 287 583.667 287 579 c 4
 287 569.667 283.667 554.333 277 533 c 4
 265.667 501 260 473.333 260 450 c 6
 260 424 l 5
 267 428 l 6
 289.667 440.667 313.667 462 339 492 c 4
 362.333 519.333 381 533 395 533 c 4
 413.667 533 425.333 524 430 506 c 4
 430.667 502 431 498 431 494 c 4
 431 474.667 420.667 462 400 456 c 4
 394 454.667 387.333 453.333 380 452 c 4
 346 446.667 313.333 435.333 282 418 c 6
 268 410 l 5
 276 405 l 6
 303.333 388.333 335.667 377 373 371 c 4
 407 365.667 426.333 355 431 339 c 5
 432 327 l 6
 432 306.333 423 294.333 405 291 c 6
 397 290 l 6
 380.333 290 360.333 304.333 337 333 c 4
 311 364.333 287.667 384.333 267 393 c 6
 260 396 l 5
 260 389 l 6xd0
 260 350.333 266.667 313 280 277 c 4
 285.333 263 288 252.333 288 245 c 4
 288 227.667 280 215.333 264 208 c 4
 259.333 206 254.333 205 249 205 c 4
 233.667 205 223 212.667 217 228 c 4
 215 232.667 214 237.333 214 242 c 4xe0
 214 254 217.667 269.333 225 288 c 4
 236.333 318 242 343 242 363 c 6
 242 372 l 5
 241 389 l 5xd0
EndSplineSet
EndChar

StartChar: Dagger
Encoding: 43 43 16
Width: 496
VWidth: 0
Flags: W
HStem: 318.5 87<53.4715 186.76 312.611 437.665>
VStem: 196.895 95.6797<438.497 569.794 569.794 574.775 574.775 621.816> 234 21<-177.437 351>
LayerCount: 2
Fore
SplineSet
234 370.5 m 1xa0
 217.206 446.075 196.895 524.385 196.895 569.517 c 0
 196.895 575.444 197.245 580.799 198 585.5 c 0
 209.923 629.062 234.181 631.5 245 631.5 c 0
 287.309 631.5 291.792 585.887 292 585.5 c 1
 292.391 582.337 292.574 578.672 292.574 574.584 c 0xc0
 292.574 515.991 255 370.5 255 370.5 c 1
 274.5 377.5 354.547 401.232 396 405.5 c 0
 410.292 405.5 444 398.789 444 361.5 c 0
 444 333.4 416.4 318.5 398 318.5 c 0
 386 318.5 368.667 322.5 346 330.5 c 0
 314 342.5 255 351 255 351 c 1
 255 -172 l 6
 255 -175.625 249.75 -177.438 244.5 -177.438 c 4
 239.25 -177.438 234 -175.625 234 -172 c 6
 234 352.5 l 1
 136.363 328.932 150 318.5 94 318.5 c 0
 64.667 318.5 47 337.5 47 361.5 c 0
 47 396.7 83.0859 405.5 93 405.5 c 0
 140.5 405.5 151 398 234 370.5 c 1xa0
EndSplineSet
EndChar

StartChar: AbarCaption
Encoding: 85 85 17
Width: 1000
VWidth: 0
Flags: H
LayerCount: 2
Fore
SplineSet
228 453 m 1
 219.5 429.667 208.833 401.333 175 317 c 0
 127 198 83 96 83 56 c 0
 83 38 86 27 109 27 c 0
 125 27 139 33 149 35 c 1
 149 35 163 28 160 20 c 0
 151 -10 126 -46 126 -46 c 1
 115 -50 92 -58 69 -58 c 0
 36 -58 0 -29 0 -9 c 2
 0 7 l 2
 0 59 73 207 135 361 c 0
 158.24 421.324 181.5 473.333 197 533 c 1
 197 533 223 636 223 677 c 0
 223 742 206 800 163 800 c 0
 150 800 151 795 148 798 c 0
 143 805 134 809 138 819 c 1
 144 844 167 871 167 871 c 1
 177 881 188 884 193 884 c 2
 198 884 l 2
 208 884 226 879 247 855 c 2
 256 845 l 1
 286 810 296 772 296 730 c 0
 296 656 228 453 228 453 c 1
EndSplineSet
EndChar

StartChar: RbarCaption
Encoding: 86 86 18
Width: 1000
VWidth: 0
Flags: H
LayerCount: 2
Fore
SplineSet
150 254 m 5
 137.664 222.773 128.341 202.635 111 153 c 5
 100.08 112.44 83 69 83 49 c 4
 83 40 93 33 86 28 c 4
 58 9 4 -7 0 -7 c 5
 0 9 l 6
 0 41 37.1562 124.349 64 197 c 5
 88 254 95.5 270.5 109 304 c 5
 109 304 218 580 218 677 c 4
 218 731 201 800 154 800 c 4
 140 800 141 795 138 798 c 4
 133 805 124 809 128 819 c 5
 134 844 157 871 157 871 c 5
 167 881 178 884 183 884 c 6
 188 884 l 6
 198 884 216 879 237 855 c 6
 246 845 l 5
 276 809 291 770 291 728 c 4
 291 605 150 254 150 254 c 5
EndSplineSet
EndChar

StartChar: VbarCaption
Encoding: 87 87 19
Width: 1000
VWidth: 0
Flags: H
LayerCount: 2
Fore
SplineSet
212 398 m 5
 159 267 l 5
 117 167 83 84 83 49 c 4
 83 40 93 33 86 28 c 4
 58 9 4 -7 0 -7 c 5
 0 9 l 6
 0 58 69 197 131 343 c 5
 143.333 375.9 169.333 428.9 183 477 c 5
 183 477 228 622 228 677 c 4
 228 731 212 800 164 800 c 4
 151 800 151 795 148 798 c 4
 143 805 134 809 138 819 c 5
 144 844 167 871 167 871 c 5
 177 881 188 884 193 884 c 6
 198 884 l 6
 208 884 226 879 247 855 c 6
 256 845 l 5
 286 809 301 770 301 728 c 4
 301 641 212 398 212 398 c 5
EndSplineSet
EndChar

StartChar: AbarCaptionSC
Encoding: 88 88 20
Width: 1000
VWidth: 0
Flags: H
LayerCount: 2
Fore
SplineSet
180 393 m 1
 175.333 378 153.333 315.5 133 268 c 1
 99 181 69 106 69 78 c 0
 69 65 75 57 85 57 c 0
 92 57 100 61 104 63 c 1
 104 63 111 56 108 50 c 1
 104 24 93 -8 93 -8 c 1
 85 -11 68 -19 51 -19 c 0
 13 -19 0 17 0 17 c 1
 0 29 l 2
 0 66 47 173 89 286 c 1
 97.5 305.367 143.833 442.7 148 472 c 2
 148 472 157 522 157 543 c 0
 157 590 152 635 139 635 c 1
 139 635 138 634 137 634 c 0
 131 631 117 645 119 651 c 1
 122 671 132 693 132 693 c 1
 139 701 146 704 150 704 c 2
 154 704 l 2
 176 704 226 665 226 591 c 0
 226 539 180 393 180 393 c 1
EndSplineSet
EndChar

StartChar: RbarCaptionSC
Encoding: 89 89 21
Width: 1000
VWidth: 0
Flags: H
LayerCount: 2
Fore
SplineSet
466 211 m 2
 462.833 201.333 448.158 154.343 440 134 c 1
 430 103 424 79 424 66 c 0
 424 59 432 54 426 50 c 0
 400 35 350 23 350 23 c 1
 350 35 l 2
 350 57 368 104 391 163 c 0
 399.833 184.333 421.833 232.667 428 252 c 2
 428 252 515 475 515 549 c 0
 515 609 492 641 481 641 c 0
 475 641 465 636 464 639 c 0
 461 645 455 649 458 658 c 1
 462 680 474 704 474 704 c 1
 481 714 489 716 493 716 c 2
 497 716 l 2
 521 716 573 665 573 598 c 0
 573 501 466 211 466 211 c 2
EndSplineSet
EndChar

StartChar: VbarCaptionSC
Encoding: 90 90 22
Width: 1000
VWidth: 0
Flags: H
LayerCount: 2
Fore
SplineSet
132 395 m 2
 132 395 165 508 165 549 c 0
 165 609 142 641 131 641 c 0
 125 641 115 636 114 639 c 0
 111 645 105 649 108 658 c 1
 112 680 124 704 124 704 c 1
 131 714 139 716 143 716 c 2
 147 716 l 2
 171 716 223 665 223 598 c 0
 223 530 159 330 159 330 c 1
 152 307.833 122.568 229.1 113 201 c 0
 91 138 74 88 74 66 c 0
 74 59 82 54 76 50 c 0
 50 35 0 23 0 23 c 1
 0 35 l 2
 0 69 43 166 85 271 c 0
 96.167 300.167 127.333 373.833 132 395 c 2
EndSplineSet
EndChar

StartChar: Abar
Encoding: 91 91 23
Width: 1000
VWidth: 0
Flags: H
LayerCount: 2
Fore
SplineSet
221 421 m 1
 214.122 402.984 192.137 349.118 170 306 c 1
 115 188 65 85 65 45 c 0
 65 31 69 23 70 21 c 0
 80 13 90 11 104 11 c 0
 125 11 144 17 156 19 c 1
 163 16 165 14 165 13 c 0
 165 8 146 -22 123 -45 c 1
 112 -48 89 -55 67 -55 c 0
 28 -55 0 -20 0 -11 c 2
 0 5 l 2
 0 65 78 211 146 361 c 0
 160.207 392.685 178.358 433.78 197 487 c 1
 197 487 240 620 240 673 c 0
 240 756 199 801 167 801 c 0
 163 801 159 800 155 799 c 1
 146 804 142 809 143 811 c 0
 151 831 186 866 204 866 c 2
 209 866 l 2
 219 866 237 861 257 839 c 2
 266 829 l 2
 297 795 307 758 307 717 c 0
 307 639 221 421 221 421 c 1
EndSplineSet
EndChar

StartChar: Rbar
Encoding: 92 92 24
Width: 1000
VWidth: 0
Flags: H
LayerCount: 2
Fore
SplineSet
147 257 m 1
 136.918 235.104 120 198 105 166 c 0
 81 111 65 68 65 45 c 0
 65 31 77 27 70 21 c 0
 51 4 15 -13 3 -13 c 0
 1 -13 0 -12 0 -11 c 2
 0 5 l 2
 0 44 33 118 74 206 c 1
 90.2568 238.115 105.667 270.667 116 296 c 1
 116 296 240 573 240 673 c 0
 240 756 199 801 167 801 c 0
 163 801 159 800 155 799 c 1
 146 804 142 809 143 811 c 0
 151 831 186 866 204 866 c 2
 209 866 l 2
 219 866 237 861 257 839 c 2
 266 829 l 2
 297 795 307 758 307 717 c 0
 307 599 147 257 147 257 c 1
EndSplineSet
EndChar

StartChar: VBar
Encoding: 93 93 25
Width: 1000
VWidth: 0
Flags: H
LayerCount: 2
Fore
SplineSet
204 381 m 1
 190.936 349.5 166.886 298.218 153 270 c 0
 105 167 65 81 65 45 c 0
 65 31 77 27 70 21 c 0
 51 4 15 -13 3 -13 c 0
 1 -13 0 -12 0 -11 c 2
 0 5 l 2
 0 61 68 190 131 329 c 0
 142.802 354.133 171.682 416.087 180 443 c 1
 180 443 240 610 240 673 c 0
 240 756 199 801 167 801 c 0
 163 801 159 800 155 799 c 1
 146 804 142 809 143 811 c 0
 151 831 186 866 204 866 c 2
 209 866 l 2
 219 866 237 861 257 839 c 2
 266 829 l 2
 297 795 307 758 307 717 c 0
 307 630 204 381 204 381 c 1
EndSplineSet
EndChar

StartChar: ABarSC
Encoding: 94 94 26
Width: 1000
VWidth: 0
Flags: H
LayerCount: 2
Fore
SplineSet
171 356 m 1
 162.965 333.643 134.417 265.25 127 249 c 0
 92 166 61 95 61 67 c 0
 61 52 63 42 84 42 c 0
 96 42 108 48 115 50 c 1
 118 47 120 45 120 43 c 0
 120 38 108 9 95 -11 c 1
 86 -14 69 -20 52 -20 c 0
 22 -20 0 6 0 12 c 2
 0 24 l 2
 0 66 51 174 98 286 c 1
 115.756 324.633 139.182 386.759 147 419 c 1
 147 419 169 502 169 534 c 0
 169 594 145 629 126 629 c 0
 123 629 121 629 118 627 c 1
 113 631 110 636 111 639 c 0
 117 658 142 689 155 689 c 2
 159 689 l 2
 177 689 231 653 231 580 c 0
 231 523 171 356 171 356 c 1
EndSplineSet
EndChar

StartChar: RBarSC
Encoding: 95 95 27
Width: 1000
VWidth: 0
Flags: H
LayerCount: 2
Fore
SplineSet
116 218 m 2
 110.157 201.897 95.5527 165.667 85 139 c 0
 70 102 61 73 61 57 c 0
 61 46 71 44 64 39 c 0
 47 27 15 13 4 13 c 0
 1 13 0 14 0 15 c 2
 0 26 l 2
 0 54 23 108 52 174 c 1
 64.4316 199.185 77.0078 230.355 87 253 c 1
 87 253 179 467 179 541 c 0
 179 602 148 636 127 636 c 0
 124 636 121 636 118 634 c 1
 113 638 110 643 111 646 c 0
 117 665 142 696 155 696 c 2
 159 696 l 2
 166 696 179 693 194 676 c 2
 201 668 l 2
 223 642 231 615 231 584 c 0
 231 493 116 218 116 218 c 2
EndSplineSet
EndChar

StartChar: VBarSC
Encoding: 96 96 28
Width: 1000
VWidth: 0
Flags: H
LayerCount: 2
Fore
SplineSet
161 328 m 1
 152.347 304.7 127.11 241.42 117 221 c 1
 86 146 61 83 61 57 c 0
 61 46 71 44 64 39 c 0
 47 27 15 13 4 13 c 0
 1 13 0 14 0 15 c 2
 0 26 l 2
 0 67 50 168 97 275 c 1
 109.347 300.367 135.937 366.695 140 380 c 2
 140 380 179 497 179 541 c 0
 179 602 148 636 127 636 c 0
 124 636 121 636 118 634 c 1
 113 638 110 643 111 646 c 0
 117 665 142 696 155 696 c 2
 159 696 l 2
 166 696 179 693 194 676 c 2
 201 668 l 2
 223 642 231 615 231 584 c 0
 231 520 161 328 161 328 c 1
EndSplineSet
EndChar

StartChar: ABarSmall
Encoding: 97 97 29
Width: 1000
VWidth: 0
Flags: H
LayerCount: 2
Fore
SplineSet
235 428 m 1
 224.789 400.16 198.658 342.93 182 310 c 1
 126 191 75 88 75 48 c 0
 75 39 77 32 79 27 c 1
 88 20 100 19 109 19 c 0
 130 19 154 25 167 27 c 1
 167 27 184 21 181 13 c 0
 169 -13 136 -46 136 -46 c 1
 124 -50 96 -57 72 -57 c 0
 58 -57 44 -53 33 -46 c 0
 -5 -21 1 -9 0 -8 c 1
 0 8 l 2
 0 60 80 209 148 362 c 0
 160.049 389.569 203.39 493.144 206 508 c 2
 206 508 242 629 242 676 c 0
 242 757 201 799 174 799 c 2
 164 799 l 1
 164 799 159 796 157 797 c 0
 151 803 140 808 144 816 c 1
 152 838 182 862 182 862 c 1
 193 871 204 874 209 874 c 2
 214 874 l 2
 224 874 244 869 266 845 c 2
 275 835 l 2
 306 800 320 762 320 720 c 0
 320 643 235 428 235 428 c 1
EndSplineSet
EndChar

StartChar: RBarSmall
Encoding: 98 98 30
Width: 1000
VWidth: 0
Flags: H
LayerCount: 2
Fore
SplineSet
161 264 m 1
 154.333 248.333 129.667 197.333 117 170 c 0
 92 114 75 71 75 48 c 0
 75 39 86 32 79 27 c 0
 53 8 4 -8 0 -8 c 1
 0 8 l 2
 0 43 36 122 80 216 c 0
 92.8623 242.091 113.601 285.569 124 311 c 1
 124 311 242 581 242 676 c 0
 242 757 201 799 174 799 c 2
 164 799 l 1
 164 799 159 796 157 797 c 0
 151 803 140 808 144 816 c 1
 152 838 182 862 182 862 c 1
 193 871 204 874 209 874 c 2
 214 874 l 2
 224 874 244 869 266 845 c 2
 275 835 l 2
 306 800 322 762 322 720 c 0
 322 602 161 264 161 264 c 1
EndSplineSet
EndChar

StartChar: VBarSmall
Encoding: 99 99 31
Width: 1000
VWidth: 0
Flags: H
LayerCount: 2
Fore
SplineSet
215 382 m 1
 201.609 353 175.004 297.095 162 268 c 0
 115 167 75 83 75 48 c 0
 75 39 86 32 79 27 c 0
 53 8 4 -8 0 -8 c 1
 0 8 l 2
 0 57 71 192 136 336 c 0
 150.817 368.531 174.942 421.333 187 456 c 1
 187 456 242 616 242 676 c 0
 242 757 201 799 174 799 c 2
 164 799 l 1
 164 799 159 796 157 797 c 0
 151 803 140 808 144 816 c 1
 152 838 182 862 182 862 c 1
 193 871 204 874 209 874 c 2
 214 874 l 2
 224 874 244 869 266 845 c 2
 275 835 l 2
 306 800 319 762 319 720 c 0
 319 632 215 382 215 382 c 1
EndSplineSet
EndChar

StartChar: ABarSmallRC
Encoding: 100 100 32
Width: 1000
VWidth: 0
Flags: H
LayerCount: 2
Fore
SplineSet
182 367 m 1
 172.167 339.95 151.495 290.243 136 255 c 0
 101 170 70 99 70 71 c 0
 70 58 73 50 89 50 c 0
 101 50 112 54 119 56 c 1
 119 56 129 49 126 43 c 1
 120 19 101 -11 101 -11 c 1
 92 -14 74 -21 56 -21 c 0
 14 -21 0 15 0 15 c 1
 0 27 l 2
 0 63 51 172 97 286 c 0
 111.588 320.833 142.833 404.617 152 442 c 1
 152 442 168 510 168 537 c 0
 168 584 151 628 130 628 c 0
 125 628 123 624 121 626 c 0
 116 631 110 636 113 644 c 0
 118 664 135 686 135 686 c 1
 143 694 151 697 155 697 c 2
 159 697 l 2
 183 697 238 658 238 584 c 0
 238 528 182 367 182 367 c 1
EndSplineSet
EndChar

StartChar: RBarSmallSC
Encoding: 101 101 33
Width: 1000
VWidth: 0
Flags: H
LayerCount: 2
Fore
SplineSet
124 219 m 2
 118.551 204.616 97.8477 157 92 140 c 0
 79 105 70 78 70 63 c 0
 70 56 78 51 72 47 c 0
 47 32 0 20 0 20 c 1
 0 32 l 2
 0 56 24 110 55 176 c 0
 65.8477 198.333 82.6543 232.837 92 256 c 1
 92 256 188 474 188 546 c 0
 188 606 144 638 129 638 c 0
 122 638 122 633 120 636 c 0
 116 642 109 646 112 654 c 1
 117 675 134 697 134 697 c 1
 142 706 151 708 155 708 c 2
 159 708 l 2
 185 708 243 657 243 591 c 0
 243 498 124 219 124 219 c 2
EndSplineSet
EndChar

StartChar: VBarSmallSC
Encoding: 102 102 34
Width: 1000
VWidth: 0
Flags: H
LayerCount: 2
Fore
SplineSet
171 332 m 2
 165.089 314.403 135 244 125 221 c 0
 95 148 70 88 70 63 c 0
 70 56 78 51 72 47 c 0
 47 32 0 20 0 20 c 1
 0 32 l 2
 0 68 53 170 103 279 c 0
 115.608 306.171 140 358.033 149 388 c 1
 149 388 188 504 188 546 c 0
 188 606 144 638 129 638 c 0
 122 638 122 633 120 636 c 0
 116 642 109 646 112 654 c 1
 117 675 134 697 134 697 c 1
 142 706 151 708 155 708 c 2
 159 708 l 2
 185 708 243 657 243 591 c 0
 243 525 171 332 171 332 c 2
EndSplineSet
EndChar
